<svg xmlns="http://www.w3.org/2000/svg" width="412" height="304" fill="none"><path fill="#D1D3D4" d="M202.3 281.3C105.1 281.3 26 226.5 26 159.1S105.1 36.9 202.3 36.9s176.3 54.8 176.3 122.2c0 20.8-7.7 41.4-22.2 59.5 1.9 26.4 4.1 58 4.1 58.4s-.3.7-.7.7c-.3 0-.5-.1-.7-.4l-21.2-40.1c-33.7 28-83 44.1-135.6 44.1m0-243c-96.4 0-174.9 54.2-174.9 120.8s78.4 120.8 174.9 120.8c52.6 0 102-16.2 135.4-44.3.3-.2.7-.2 1 .1l.1.1 20.1 37.9c-.6-8.8-2.3-33.8-3.9-55.3 0-.2 0-.4.2-.5 14.5-17.9 22.1-38.2 22.1-58.8-.2-66.6-78.6-120.8-175-120.8"/><path fill="#D1D3D4" d="M340.401 150.7c-.1 0-.2 0-.4-.1q-.45-.3-.3-.9l6.1-16.3c-8-5.9-12.5-14.3-12.5-23.1 0-17.3 17.5-31.4 38.9-31.4s38.9 14.1 38.9 31.4-17.5 31.4-38.9 31.4c-6.9 0-13.7-1.5-19.9-4.4l-11.4 13.1c-.2.2-.3.3-.5.3m31.8-70.4c-20.7 0-37.5 13.5-37.5 30 0 8.5 4.5 16.6 12.4 22.3.3.2.4.5.2.8l-4.9 13.2 9.2-10.6c.2-.2.6-.3.8-.2 6.2 3 12.9 4.6 19.8 4.5 20.7 0 37.5-13.5 37.5-30s-16.8-30-37.5-30M54.1 187c-.2 0-.3 0-.4-.1-4.6-3.6-9-7.5-13.1-11.7h-1.7c-21 0-38-11.3-38-25.2s17-25.2 38-25.2 38 11.3 38 25.2c0 10.3-9.6 19.6-24 23.4l1.9 12.8c0 .3-.1.6-.3.7s-.3.1-.4.1m-13.2-13.3c.2 0 .4.1.5.2 3.7 3.8 7.6 7.4 11.8 10.7L51.4 173c-.1-.4.2-.7.5-.8 14.1-3.5 23.6-12.4 23.6-22.2 0-13.1-16.4-23.8-36.6-23.8S2.3 136.9 2.3 150s16.4 23.8 36.6 23.8c.6 0 1.3 0 2-.1"/><path fill="#231F20" d="M84.9 31.1s3.2-6 8.4-14.3c0 0 16.6 12.4 16.4 11.7s-24.8 2.6-24.8 2.6"/><path fill="#231F20" d="M84.901 31.8c-.4 0-.7-.3-.7-.7 0-.1 0-.2.1-.3 0-.1 3.3-6.1 8.5-14.3.1-.2.3-.3.5-.3s.4 0 .5.1c5.7 4.3 15.2 11.2 16.1 11.6.5.1.5.3.5.5 0 .3-.1.6-.3.8-.1.1-.3.2-.7 0-1.5-.3-15.7 1.4-24.5 2.6m8.7-14c-3.6 5.7-6.2 10.3-7.4 12.4 12-1.6 18-2.2 21.1-2.4-2.2-1.5-6.2-4.4-13.7-10M304.2 280.7l8.2-13.7-11.4-10.4z"/><path fill="#231F20" d="M304.201 281.4h-.2c-.3-.1-.5-.3-.5-.6l-3.2-24.1c0-.3.1-.6.4-.7s.6-.1.8.1l11.4 10.3c.2.2.3.6.1.9l-8.3 13.8c-.1.2-.3.3-.5.3m-2.3-23 2.7 20.2 6.9-11.5z"/><path fill="#231F20" d="m298.801 283.6-133 19c-5.6.7-11-2.7-12.6-8.2L84.401 37c-1.4-5.3 2-10 7.6-10.5l135.6-10.9c5.5-.3 10.5 3.3 12.1 8.6l66 248.9c1.3 4.4-1.2 9-5.6 10.3-.4.1-.8.2-1.3.2"/><path fill="#231F20" d="M164.301 303.4c-5.4 0-10.2-3.6-11.8-8.8l-68.8-257.5c-.8-2.6-.3-5.4 1.2-7.6 1.7-2.3 4.3-3.7 7.1-3.8l135.6-10.9c5.9-.3 11.2 3.5 12.8 9.1l66 248.9c.7 2.6.3 5.3-1.1 7.6-1.5 2.2-3.8 3.6-6.4 3.9l-132.9 19c-.5.1-1.1.1-1.7.1m64.2-287.2h-.8l-135.6 11c-2.4.1-4.6 1.3-6 3.2-1.3 1.9-1.6 4.2-1 6.4L154 294.2c1.5 5.1 6.5 8.3 11.8 7.7l133-19c2.2-.3 4.2-1.5 5.4-3.3 1.2-1.9 1.6-4.3 1-6.4l-66-248.9c-1.5-4.8-5.8-8-10.7-8.1"/><path fill="#fff" d="m307.5 269.4-133 19c-5.6.7-11-2.7-12.6-8.2L93.1 22.7c-1.4-5.3 2-10 7.6-10.5L236.3 1.3c5.5-.3 10.5 3.3 12.1 8.6l66 248.9c1.3 4.4-1.2 9-5.5 10.3-.5.2-1 .3-1.4.3"/><path fill="#231F20" d="M173 289.2c-5.4 0-10.2-3.6-11.8-8.8L92.4 22.9c-.8-2.6-.3-5.4 1.2-7.6 1.7-2.3 4.3-3.7 7.1-3.8L236.3.6c5.9-.3 11.2 3.5 12.8 9.1l66 248.9c.7 2.6.3 5.3-1.1 7.5-1.5 2.2-3.8 3.6-6.4 3.9l-133 19c-.5.1-1.1.2-1.6.2M237.2 2h-.8L100.8 13c-2.4.1-4.6 1.3-6 3.2-1.3 1.9-1.7 4.2-1 6.4L162.6 280c1.5 5.1 6.5 8.3 11.8 7.7l133-19c2.2-.3 4.2-1.5 5.4-3.3 1.2-1.9 1.6-4.2.9-6.4l-66-248.9c-1.4-4.8-5.6-8-10.5-8.1"/><path fill="#000" d="m106.201 39.7 138.9-12 53.2 200.8-136.8 18.2z"/><path fill="#fff" d="m252.5 267.9-26 3.6c-3.4.4-6.6-1.7-7.6-5l-2.6-9.7c-.8-2.8.8-5.7 3.5-6.5.3-.1.6-.2.9-.2l26-3.5c3.4-.4 6.5 1.7 7.5 5l2.5 9.6c.8 2.7-.8 5.6-3.5 6.4-.1.2-.4.3-.7.3"/><path fill="#D1D3D4" d="M225.7 272.4c-3.4 0-6.4-2.3-7.4-5.6l-2.6-9.7c-.5-1.7-.2-3.5.7-4.9 1-1.5 2.6-2.4 4.3-2.6l26-3.5c3.7-.4 7.2 1.9 8.2 5.5l2.6 9.6c.9 3.1-.9 6.4-4 7.3-.3.1-.7.2-1 .2l-26 3.6c-.2 0-.5 0-.8.1m22-25h-.8L221 251c-1.3.2-2.6.9-3.3 2s-.9 2.5-.6 3.8l2.6 9.7c.9 3 3.7 4.8 6.8 4.5l26-3.6c2.5-.3 4.2-2.4 4-4.9 0-.3-.1-.6-.2-.8l-2.5-9.6c-.8-2.8-3.3-4.7-6.1-4.7m-100.398-225c-.4 0-.7-.3-.7-.7s.3-.7.7-.7l39.7-3.3c.4 0 .7.2.8.6 0 .4-.3.7-.6.8zm45.199-3.7c-.4 0-.7-.3-.7-.7s.3-.7.7-.7l5.3-.4c.4 0 .7.3.8.6 0 .4-.3.7-.6.8z"/><path fill="#fff" d="M155.901 136.5c-.1 0-.3 0-.4-.1-.3-.2-.4-.7-.2-1l62.8-91.7c.2-.3.7-.3 1-.1s.3.6.2.9l-62.8 91.7q-.3.3-.6.3m51 77.6c-.1 0-.3 0-.4-.1-.3-.2-.4-.6-.2-1l37.9-54.3c.2-.3.7-.4 1-.2s.4.7.2 1l-37.9 54.3c-.1.2-.4.3-.6.3m-10.3-51.4c-.1 0-.3 0-.4-.1-.3-.2-.4-.7-.2-1l14.8-22c.2-.3.7-.4 1-.1.3.2.4.6.2.9l-14.8 22c-.2.1-.4.3-.6.3m-47.602-61.6-69.7 5.7c-2.6 0-4.8-1.8-5.3-4.3l-10.3-46.8c-.6-2.5.9-4.7 3.2-4.9l69.5-4.2c2.4.1 4.5 1.8 5 4.2l10.5 45.3c.7 2.7-.7 4.8-2.9 5"/><path fill="#231F20" d="M136.7 46.7c2.4.2 4.3 1.9 4.8 4.2l10.4 45.3c.6 2.5-.8 4.7-3 4.8l-69.7 5.7H79c-2.5-.1-4.5-1.9-5-4.3L63.7 55.6c-.6-2.5.9-4.7 3.2-4.9l69.5-4.2zm0-1.4h-.3L67 49.5c-1.4.1-2.8.8-3.6 1.9-1 1.3-1.3 3-.9 4.6l10.3 46.8c.6 3 3.2 5.3 6.3 5.4h.4l69.6-5.7c1.4-.1 2.6-.8 3.4-1.9.9-1.4 1.2-3.1.8-4.6L143 50.6c-.6-3-3.2-5.1-6.2-5.3z"/><path fill="#D1D3D4" d="M110.599 86.7c-.1 0-.3-.1-.4-.1l-46.2-33.7c-.3-.2-.4-.7-.2-1s.7-.4 1-.1L110.5 85 139 47.3c.2-.3.7-.4 1-.2s.4.7.2 1l-29 38.2c-.2.3-.4.4-.6.4"/><path fill="#D1D3D4" d="M151.5 100.4c-.1 0-.3 0-.4-.1l-33.8-23c-.3-.2-.4-.6-.2-1 .2-.3.6-.4 1-.2l33.8 23c.3.2.4.7.2 1q-.3.3-.6.3m-75.3 6.1c-.2 0-.3-.1-.4-.2-.3-.2-.3-.7-.1-1L99 77.5c.2-.3.7-.3 1-.1.3.3.3.7.1 1l-23.4 27.8c-.1.2-.3.3-.5.3"/><path fill="#fff" d="m293.4 37.8-72.8 4.8c-3.8.2-6.7 3.5-6.5 7.3 0 .4.1.8.2 1.1L226 95c1 4.4 5 7.5 9.6 7.2l3.5-.3 1.5 17.1 9.9-18.1 57.2-3.4c3.7-.3 6.5-3.6 6.2-7.3 0-.4-.1-.8-.2-1.2l-10.8-44c-1.1-4.5-5.1-7.5-9.5-7.2"/><path fill="#231F20" d="M240.5 119.6h-.1c-.3-.1-.5-.3-.5-.6l-1.4-16.3-2.8.3c-4.9.3-9.3-2.9-10.3-7.7l-11.6-44c-.9-4.1 1.6-8.1 5.7-9.1.4-.1.8-.2 1.2-.2l72.8-4.8c4.7-.3 9 2.9 10.1 7.5l10.8 44c.6 2.2.1 4.5-1.2 6.4-1.3 1.7-3.3 2.8-5.5 3l-56.8 3.4-9.8 17.8c-.1.1-.4.3-.6.3m-1.5-18.5c.4 0 .7.3.7.6l1.3 14.7 8.8-16.1c.1-.2.3-.3.6-.4l57.2-3.4c1.8-.1 3.4-1 4.4-2.5 1.1-1.5 1.4-3.4 1-5.2l-10.8-44c-1-3.9-4.6-6.6-8.7-6.4l-72.8 4.8c-3.4.2-6 3.1-5.8 6.5 0 .3.1.7.1 1l11.6 44c.9 4.1 4.6 6.9 8.8 6.6z"/><path fill="#D1D3D4" d="M270.099 90.7c-1.1-.9-2.2-1.7-3.3-2.6l-9.3-6.8c-2-1.5-4.1-3-6-4.7-1.7-1.5-3.2-3.2-4.4-5.1-.7-1.3-1.3-2.7-1.7-4.1-.4-1.2-.6-2.5-.8-3.8-.6-4.2 1.8-8.2 5.7-9.7 4.3-1.6 8.4-.7 12.2 2.4q1.35 1.05 2.4 2.4l.1.2c0-.1.1-.2.1-.2.9-2 2.4-3.7 4.3-4.8 1.7-1 3.7-1.4 5.7-1.3 5.1.2 9.5 3.6 11.1 8.4.4 1.2.6 2.5.7 3.8.1 1.4.1 2.7 0 4.1-.3 2-1 3.9-2.1 5.6s-2.5 3.3-3.9 4.8c-2.1 2.2-4.3 4.5-6.5 6.7-1.5 1.6-2.9 3.1-4.3 4.7"/><path fill="#fff" d="m160.299 166-2.2.2-.4-15.4s-5.3 10.2-8.6 16.1l-67.2 5c-3.6.3-6.2 3-5.6 6.2l8.7 49.6c.6 3.4 4.1 5.8 7.9 5.4l81.2-8c3.5-.4 5.8-3.3 5-6.5l-11.3-47.6c-.8-3.1-4.1-5.3-7.5-5"/><path fill="#231F20" d="M92.1 233.8c-3.8 0-7.2-2.6-7.9-6.1l-8.7-49.6c-.3-1.6.1-3.2 1.1-4.4 1.3-1.5 3.1-2.5 5.1-2.6l66.8-5c3.3-5.9 8.4-15.6 8.4-15.7.1-.3.5-.4.8-.4.3.1.5.3.6.7l.4 14.6 1.4-.1c3.7-.3 7.4 2.2 8.2 5.5l11.3 47.6c.4 1.6.1 3.4-.9 4.8-1.1 1.5-2.8 2.5-4.7 2.6l-81.2 8c-.1 0-.4 0-.7.1m65-80.4c-1.8 3.4-5.1 9.6-7.4 13.7-.1.2-.3.3-.6.4l-67.2 5c-1.6.1-3.1.8-4.1 2-.7.9-1 2.1-.8 3.3l8.7 49.6c.5 3 3.7 5.2 7.2 4.9l81.2-8c1.5-.1 2.8-.8 3.7-2 .7-1 1-2.4.7-3.6l-11.3-47.6c-.6-2.7-3.7-4.7-6.8-4.5l-2.2.2c-.2 0-.4 0-.5-.2-.1-.1-.2-.3-.2-.5z"/><path fill="#D1D3D4" d="m116.3 218.8-9.5.9-4.8-25.1 9.4-.7z"/><path fill="#D1D3D4" d="M106.799 220c-.1 0-.2-.1-.2-.2l-4.8-25.1v-.2c0-.1.1-.1.2-.1l9.4-.8c.1 0 .2.1.2.2l4.9 25v.2c0 .1-.1.1-.2.1zm-4.6-25.1 4.7 24.6 9.1-.9-4.8-24.5zm13.201.7s7.7-2.6 10.1-7.3 1.5-12.4 2.6-12.9c2.1-.6 4.4.3 5.7 2.1 1.7 2.4 2.3 9.5.5 14.4 0 0 10.2-1 14.8-1.4s6.4 3.5 4 5.4c0 0 3.7.1 3.1 3.5s-1.9 3.6-4 3.8c0 0 2.6.4 2.4 2.9s-3.3 3.4-3.3 3.4 3.2 1.1 1.7 4.1-6.5 3.1-18.3 3.5-15.6-1.9-15.6-1.9z"/><path fill="#D1D3D4" d="M132.199 217.4c-9.7 0-12.9-1.9-13-2-.1 0-.1-.1-.1-.1l-3.9-19.6c0-.1 0-.2.1-.2s7.6-2.6 10-7.1c1.4-2.6 1.6-6.3 1.8-9 .2-2.5.3-3.7.9-4 1.4-.6 4.3-.2 5.9 2.2s2.3 9.4.7 14.2c1.8-.2 10.4-1 14.5-1.3 2.9-.2 4.6 1.2 5.1 2.5.4 1 .2 2.2-.5 3 .9.1 1.7.6 2.3 1.2.5.7.7 1.6.5 2.5-.5 2.9-1.6 3.6-3.2 3.9 1.1.5 1.8 1.6 1.6 2.8-.2 2-2 3-2.9 3.4.7.3 1.3.9 1.6 1.6.3.8.2 1.7-.3 2.5-1.6 3.1-6.9 3.2-18.5 3.6-.9-.2-1.8-.1-2.6-.1m-12.7-2.4c.6.3 4.6 2.2 15.4 1.8 11.4-.4 16.6-.5 18.1-3.4.4-.6.5-1.4.2-2.1-.4-.7-1-1.3-1.8-1.6-.1 0-.1-.1-.1-.2s.1-.2.2-.2c0 0 2.9-.9 3.1-3.2.1-1.3-.9-2.5-2.2-2.6-.1 0-.2-.1-.2-.2s.1-.2.2-.2c1.9-.2 3.2-.3 3.8-3.6.2-.7 0-1.5-.4-2.1-.7-.7-1.6-1.1-2.5-1.1-.1 0-.2-.1-.2-.1 0-.1 0-.2.1-.2.9-.7 1.2-1.8.8-2.8-.5-1.1-1.9-2.4-4.6-2.2-4.6.4-14.7 1.3-14.8 1.4-.1 0-.1 0-.2-.1v-.2c1.7-4.7 1.2-11.8-.5-14.2-1.2-1.7-3.4-2.5-5.4-2-.4.2-.5 1.9-.6 3.6-.2 2.7-.5 6.5-1.9 9.2-2.2 4.3-8.9 6.9-10.1 7.3z"/><path fill="#fff" d="m316 210.4-68.7 6.6c-4.9.5-9.9-3.2-11.2-8.3l-10-41c-1.3-5.1 1.7-9.8 6.7-10.3l69-7.5c5.1-.6 10.2 3.2 11.5 8.4l9.8 41.7c1.1 5.4-2 9.9-7.1 10.4"/><path fill="#231F20" d="M246.501 217.8c-5.2-.2-9.7-3.8-11-8.9l-10-41c-.7-2.6-.2-5.4 1.3-7.7 1.4-2 3.6-3.3 6-3.5l69-7.5c5.4-.6 10.9 3.4 12.2 9l9.8 41.7c.7 2.6.2 5.4-1.4 7.6-1.5 2-3.8 3.3-6.3 3.5l-68.7 6.6c-.3.2-.6.2-.9.2m56.3-67.2c-.3 0-.7 0-1 .1l-69 7.5c-2 .2-3.8 1.3-5 2.9-1.3 1.9-1.7 4.3-1 6.5l10 41c1.2 4.7 5.8 8.2 10.4 7.8l68.8-6.7c2.1-.2 4-1.2 5.2-3 1.3-1.9 1.7-4.2 1.1-6.5l-9.8-41.7c-1-4.4-5-7.7-9.7-7.9"/><path fill="#D1D3D4" d="m294.301 183.2-24.7 19.3c-1.8 1.4-4.6.1-5.2-2.3l-7.9-32.5c-.4-1.5.4-3 1.9-3.5.7-.2 1.4-.1 2 .2l32.6 13.3c2.4.9 3.1 4 1.3 5.5"/></svg>