<svg xmlns="http://www.w3.org/2000/svg" width="147" height="30" fill="none"><g fill="#000" clip-path="url(#a)"><path fill-rule="evenodd" d="M62.065 18.124q.465-1.193.465-2.766t-.474-2.766-1.299-2.007a5.35 5.35 0 0 0-1.931-1.22 6.8 6.8 0 0 0-2.352-.406 6.6 6.6 0 0 0-2.309.407 5.4 5.4 0 0 0-1.931 1.22q-.834.812-1.326 2.006t-.492 2.766.475 2.766q.474 1.194 1.299 1.998.825.805 1.931 1.21a6.8 6.8 0 0 0 2.353.407q1.281 0 2.396-.407a5.2 5.2 0 0 0 1.922-1.21q.807-.804 1.273-1.998m-8.602-1.14a5.6 5.6 0 0 1-.22-1.626q0-.884.22-1.617a3.7 3.7 0 0 1 .632-1.255 2.9 2.9 0 0 1 1.01-.814q.595-.291 1.369-.291.754 0 1.36.283.606.282 1.018.804t.632 1.255.22 1.635q0 .9-.22 1.626a3.7 3.7 0 0 1-.632 1.246 2.8 2.8 0 0 1-1.018.805q-.606.283-1.36.283-.774 0-1.37-.284a2.8 2.8 0 0 1-1.01-.804 3.7 3.7 0 0 1-.632-1.246" clip-rule="evenodd"/><path d="M69.417 19.388q.58 0 .956-.097.378-.096.606-.265a.9.9 0 0 0 .316-.398q.088-.23.088-.512 0-.6-.562-.999-.562-.397-1.931-.858-.597-.21-1.194-.486a4.4 4.4 0 0 1-1.07-.689 3.3 3.3 0 0 1-.773-1.008q-.3-.591-.299-1.44 0-.848.316-1.53.317-.679.896-1.157a4.1 4.1 0 0 1 1.404-.734q.825-.255 1.861-.256 1.23 0 2.124.265.896.266 1.475.584l-.79 2.174a7.5 7.5 0 0 0-1.132-.469q-.624-.203-1.501-.203-.984 0-1.414.274t-.43.84q0 .337.158.565.158.23.448.416t.667.336.834.309q.948.354 1.65.698.703.345 1.168.805.464.459.693 1.078t.228 1.502q0 1.715-1.194 2.66-1.194.947-3.598.947a9.5 9.5 0 0 1-2.607-.336 7 7 0 0 1-.86-.3 7 7 0 0 1-.606-.302l.772-2.191q.544.3 1.343.538.799.24 1.958.24M86.275 9.242v2.351h-3.67v9.899h-2.738v-9.899h-3.67v-2.35zm3.042 12.25h2.739V9.242h-2.739zm14.998 0a62 62 0 0 0-2.545-4.154 43 43 0 0 0-2.915-3.871v8.025h-2.703V9.242h2.23q.578.583 1.28 1.432t1.432 1.812 1.448 1.997 1.352 1.988V9.243h2.721v12.25zm12.329-10.129q-1.913 0-2.765 1.07t-.851 2.925q0 .9.21 1.635.212.733.632 1.264.421.53 1.054.822.631.292 1.474.292.456 0 .782-.018a3.6 3.6 0 0 0 .57-.07v-4.26h2.739v6.062q-.492.195-1.58.415-1.089.222-2.686.222-1.37 0-2.484-.425a5.2 5.2 0 0 1-1.905-1.237q-.79-.813-1.22-1.997t-.43-2.705q0-1.537.474-2.722.473-1.185 1.299-2.006a5.5 5.5 0 0 1 1.94-1.246 6.6 6.6 0 0 1 2.378-.425 9.6 9.6 0 0 1 2.748.38 5.5 5.5 0 0 1 1.29.557l-.79 2.21a7 7 0 0 0-1.29-.522 5.5 5.5 0 0 0-1.589-.22m7.677 10.128V9.242h8.216v2.316h-5.477v2.403h4.863v2.263h-4.863v2.952h5.881v2.316z"/><path fill-rule="evenodd" d="M144.006 10.081q-1.457-.98-4.196-.98-.755 0-1.711.07t-1.852.247v12.074h2.738v-4.473h1.352q.352.425.705.947a31 31 0 0 1 1.419 2.306l.678 1.22h3.061q-.315-.672-.684-1.37-.368-.699-.764-1.343a30 30 0 0 0-.799-1.238 17 17 0 0 0-.772-1.052q1.107-.46 1.694-1.263.589-.805.588-2.095 0-2.069-1.457-3.05m-4.573 1.388q.237-.017.535-.018 1.317 0 1.993.38t.676 1.282q0 .938-.667 1.326t-2.212.388h-.773v-3.323z" clip-rule="evenodd"/><path d="M44.003 9.341h2.755v12.207h-2.756v-5.179h-4.627v5.179H36.62V9.34h2.755v4.668h4.627z"/><path fill-rule="evenodd" d="M17.818.798v8.73l7.052 4.124v-9.26zM0 .798v13.699h22.937l-6.979-3.836-9.09-.004V4.485zM17.818 26.27v-6.118l-9.161-.007c.008.041-7.095-3.897-7.095-3.897l23.308.11v13.699zM0 17.32v8.951l6.868 3.595v-8.52z" clip-rule="evenodd"/></g><defs><clipPath id="a"><path fill="#000" d="M0 0h147v30H0z"/></clipPath></defs></svg>