<svg xmlns="http://www.w3.org/2000/svg" width="439" height="382" fill="none"><path fill="#D1D3D4" d="M1.3 204.201c-.4 0-.8-.3-.8-.8s.3-.8.8-.8l45.5-2.5c.4 0 .8.3.8.7s-.3.8-.7.8zm109.099 139.8c-.1 0-.3 0-.4-.1-.3-.2-.4-.7-.2-1l22.3-34.7c.2-.3.7-.4 1-.2s.4.7.2 1l-22.3 34.7q-.15.3-.6.3m-84.299-56.2c-.4 0-.7-.3-.7-.8 0-.3.1-.5.4-.6l33.9-19c.4-.2.8-.1 1 .3s.1.8-.3 1l-33.9 19c-.2 0-.3.1-.4.1M277.499 24h-.3c-.4-.1-.6-.6-.5-1l8.3-22.3c.1-.4.6-.6 1-.5s.6.6.5 1l-8.3 22.3c-.1.3-.4.5-.7.5m124.9 134.801c-.4 0-.7-.3-.7-.8 0-.4.3-.7.6-.7l35.5-5.8c.4-.1.8.2.9.7.1.4-.2.8-.6.9l-35.5 5.8zm-.9 147.199q-.3 0-.6-.3l-22.3-28.1c-.3-.3-.2-.8.1-1s.7-.2 1 .1l22.3 28.1c.3.3.2.8-.1 1.1-.1 0-.3.1-.4.1M53.9 67.2c-.2 0-.4-.1-.5-.2l-16-13.7c-.3-.3-.4-.7-.1-1.1.3-.3.7-.3 1-.1l16 13.7c.3.3.4.7.1 1.1-.1.2-.3.3-.5.3"/><path fill="#fff" d="m341.4 380.5 1.7-48.6-36.4-5.5-2.2 54.6"/><path fill="#231F20" d="M304.501 381.8c-.4 0-.7-.4-.7-.8l2.2-54.6c0-.4.4-.7.8-.7h.1l36.4 5.5c.4.1.6.4.6.8l-1.6 48.5c0 .4-.3.7-.7.7h-.1c-.4 0-.7-.4-.7-.8l1.6-47.8-34.9-5.3-2.2 53.7c0 .4-.4.7-.8.8"/><path fill="#fff" d="m163.9 359.5 41.6-49.3 37.3 9.1-47.5 48.5"/><path fill="#231F20" d="M195.3 368.501c-.2 0-.4-.1-.5-.2-.3-.3-.3-.8 0-1.1l46.5-47.6-35.5-8.7-41.3 49c-.3.3-.8.3-1.1.1-.3-.3-.3-.8-.1-1.1l41.7-49.3c.2-.2.5-.3.8-.2l37.2 9.1c.4.1.6.5.5.9 0 .1-.1.2-.2.3l-47.4 48.5q-.3.3-.6.3"/><path fill="#000" d="M325.2 111.101s-56.6 15.5-56 17.7 11.6 43 11.6 43l35.2-8.8z"/><path fill="#000" d="M326.4 110.8s-18 4.8-29 11.1c-11.2 6.4-8 74-8 74l81.6 16.4s15.5-43.9 14.5-63.9-13.5-48.5-59.1-37.6"/><path fill="#231F20" d="M285.7 162.9h-.3c-.4-.2-.6-.6-.4-1 5.4-13.1 13.4-33.1 13.6-34.5 0-.4.3-.7.7-.7s.8.4.8.8c0 1.2-9.6 24.9-13.7 35-.1.2-.4.4-.7.4"/><path fill="#fff" d="m331.301 102.5-5.8 17.3s-.1 10.3 11.3 9.4c6.8-.6 13-4.2 16.9-9.9l4.8-31c-1.7-1.5-2.9-3.6-3.1-5.9-.2-1.7-.2-3.5.1-5.2.5-2.3 1.4-4.5 2.5-6.6-5.5-1.1-10.3-3.3-14.1-7.6-.9-1.1-1.7-2.2-2.5-3.4-.4-.5-7.6 2.9-8.4 3.2-3.5 1.8-7 4.3-9.1 7.7-1.7 2.9-2.3 6.2-2.9 9.4-.8 4.5-1.3 9.1-1.3 13.6.3 8.9 11.6 9 11.6 9"/><path fill="#231F20" d="M335.4 130c-2.7.1-5.4-.8-7.5-2.6-2-2-3.1-4.8-3.2-7.6v-.2l5.5-16.4c-2.9-.3-11-1.8-11.1-9.5 0-4.6.4-9.2 1.3-13.8.5-3.1 1.1-6.6 3-9.7s5.1-5.9 9.4-8c8.5-4.2 9-3.4 9.3-3q1.05 1.65 2.4 3.3c3.4 3.8 7.7 6.1 13.7 7.3.4.1.7.5.6.9 0 .1 0 .1-.1.2-1.1 2-1.9 4.1-2.5 6.4-.3 1.6-.4 3.3-.1 4.9.2 2.1 1.2 4.1 2.8 5.5.2.2.3.4.3.7l-4.8 31c0 .1 0 .2-.1.3-3.9 5.9-10.3 9.7-17.4 10.4-.5-.1-1-.1-1.5-.1m-9.1-10.1c.1 2.4 1 4.7 2.7 6.4q2.7 2.55 7.8 2.1c6.5-.6 12.5-4 16.2-9.4l4.7-30.4c-1.7-1.6-2.8-3.8-3-6.1-.3-1.8-.2-3.6.1-5.4.5-2 1.2-4 2.2-5.9-5.8-1.3-10.2-3.8-13.6-7.6-.8-1-1.6-2.1-2.3-3.1-2.6.9-5.1 2-7.6 3.2-2.8 1.4-6.6 3.8-8.8 7.4-1.7 2.8-2.2 6.1-2.8 9.2-.8 4.5-1.3 9-1.3 13.5.1 7.9 10.2 8.1 10.7 8.1.4 0 .7.3.7.8v.2z"/><path fill="#fff" d="M352.5 85.5c.5-1.3 1.5-2.3 2.6-3 1.1-.6 2.4-1 3.6-1.1q1.05-.3 2.1 0c.5.2.9.4 1.3.7.9.7 1.6 1.6 1.9 2.7.1.9 0 1.9-.3 2.8-.3 1-.7 1.9-1.2 2.8-2.2 3.6-7 4.7-10.5 2.4 0 0-.1 0-.1-.1"/><path fill="#231F20" d="M356 94.7c-1.6 0-3.2-.5-4.6-1.4-.3-.2-.4-.7-.2-1s.7-.4 1-.2c3.2 2.1 7.5 1.2 9.6-2 0 0 0-.1.1-.1.5-.8.9-1.7 1.1-2.6q.45-1.2.3-2.4c-.3-.9-.8-1.8-1.6-2.3-.3-.3-.6-.4-1-.6-.6-.1-1.2-.1-1.7.1-1.2.2-2.3.5-3.4 1.1-1 .6-1.9 1.5-2.3 2.6-.2.4-.6.6-1 .4s-.6-.6-.4-1c.6-1.4 1.7-2.6 3-3.4 1.2-.6 2.5-1.1 3.9-1.2q1.2-.3 2.4 0c.6.2 1.1.5 1.5.8 1.1.8 1.9 1.9 2.2 3.2.1 1 0 2.1-.3 3.1-.3 1.1-.7 2.1-1.3 3-1.7 2.4-4.4 3.9-7.3 3.9m-27.6 17c4.2.4 8.4-.7 11.9-3 5.6-3.9 5.9-8.9 5.9-8.9-4.7 2.1-9.7 3-14.8 2.8z"/><path fill="#231F20" d="M330.101 112.5c-.6 0-1.2 0-1.8-.1-.2 0-.4-.2-.5-.3-.1-.2-.1-.4-.1-.6l2.9-9.1c.1-.3.4-.5.8-.5 5 .2 9.9-.7 14.4-2.7.2-.1.5-.1.8 0 .2.1.4.4.3.7 0 .2-.4 5.4-6.2 9.4-3.1 2.1-6.8 3.2-10.6 3.2m-.7-1.5c3.7.2 7.4-.9 10.5-2.9 2.5-1.6 4.4-4.1 5.3-7-4.2 1.6-8.7 2.4-13.3 2.3z"/><path fill="#fff" d="M339.001 72.9s-7.4 7.4-6.3 9.2 5.1 1.5 5.1 1.5"/><path fill="#231F20" d="M337.201 84.3c-1.3 0-4.1-.2-5.2-1.9-1.2-2 3.5-7.2 6.4-10.1.3-.3.8-.3 1.1 0s.3.8 0 1c-3.5 3.6-6.5 7.4-6.2 8.3.6 1 3 1.2 4.4 1.1.4 0 .8.3.8.7s-.3.8-.7.8zm-9.501 3.5 14.3-.2s-.6 9.7-9 10.2-5.3-10-5.3-10"/><path fill="#fff" d="M342.4 72.9c.4-.8 1.2-1.4 2.1-1.5 1.6-.3 2.5 1.6 2.5 1.6"/><path fill="#231F20" d="M346.9 73.8c-.3 0-.6-.2-.7-.4 0 0-.6-1.4-1.7-1.2-.6.1-1.2.4-1.5 1-.1.4-.6.6-1 .5s-.6-.5-.5-.9c.5-1.1 1.5-1.9 2.7-2 1.4-.1 2.8.7 3.3 2.1.2.4 0 .8-.4 1 0-.2-.1-.1-.2-.1"/><path fill="#fff" d="M329.1 71.6c.4-.8 1.2-1.4 2.1-1.5 1.6-.3 2.5 1.6 2.5 1.6"/><path fill="#231F20" d="M333.701 72.5c-.3 0-.6-.2-.7-.4 0 0-.6-1.4-1.7-1.2-.6.1-1.2.4-1.5 1-.1.4-.6.6-1 .5s-.6-.5-.5-.9c.5-1.1 1.5-1.9 2.6-2 1.4-.1 2.8.7 3.3 2.1.2.4 0 .8-.4 1 .1-.1 0-.1-.1-.1M369.4 211.3l-11.7 155.9-194.3-39.7L292.5 195zM285.7 96.9l-228.2 38 100.4-102z"/><path fill="#231F20" d="M57.5 135.7c-.3 0-.5-.2-.7-.4-.2-.3-.1-.6.1-.9l100.4-102c.2-.2.6-.3.9-.1l127.8 64c.3.1.5.5.4.8 0 .3-.3.6-.6.6l-228.2 38zM158.1 33.8l-98.4 100 223.7-37.3zM306.801 250l-215.3 38.7-33.7-152.4 228.1-38.1z"/><path fill="#231F20" d="M91.5 289.4c-.4 0-.7-.2-.7-.6L57.1 136.4c0-.2 0-.4.1-.6s.3-.3.5-.3l228.1-38c.2 0 .4 0 .6.1s.3.3.3.5l20.9 151.7c.1.4-.2.8-.6.8L91.7 289.3zM58.7 136.9l33.4 151L306 249.4 285.3 99.1z"/><path fill="#000" d="M109.6 238.2S69.9 115.8 50.9 78.6l212.5-57.9 13.2 189.4z"/><path fill="#fff" d="M88.1 100.1c-.4 0-.8-.3-.8-.7s.2-.7.6-.7l156.301-40.5c.4-.1.8.1.9.5s-.1.8-.5.9l-156.3 40.5zm6.6 25.601c-.4 0-.7-.2-.7-.6-.1-.4.2-.8.6-.9l151.3-33.9c.4-.1.8.2.9.6s-.2.8-.6.9L94.9 125.7zm13 23.999c-.4 0-.8-.3-.8-.7s.3-.7.6-.8l144.7-28.1c.4-.1.8.2.9.6s-.2.7-.6.8l-144.7 28.1zm6.9 30.6c-.4 0-.7-.3-.7-.6-.1-.4.2-.8.6-.9l137.3-22.3c.4-.1.8.2.9.6s-.2.8-.6.9l-137.3 22.3z"/><path fill="#fff" d="m186.901 195.2-129.1-58.9 33.7 152.4L306.8 250 285.9 98.2z"/><path fill="#231F20" d="M91.5 289.401c-.4 0-.7-.2-.7-.6l-33.7-152.4c-.1-.4.2-.8.6-.9h.4l128.599 58.8 98.6-96.6c.3-.3.8-.3 1 0 .1.1.2.3.2.4l20.9 151.7c.1.4-.2.8-.6.8l-215.2 38.7zm-32.6-151.8 33.2 150.3 213.899-38.5-20.6-149.6-97.9 95.9c-.2.2-.6.3-.8.1z"/><path fill="#fff" d="M306.8 250 91.6 288.7l95.3-93.5z"/><path fill="#231F20" d="M91.6 289.401c-.4 0-.7-.3-.7-.8 0-.2.1-.4.2-.5l95.4-93.5c.2-.2.6-.3.8-.1l119.9 54.7c.4.2.5.6.4 1-.1.2-.3.4-.5.4l-215.3 38.7zm95.5-93.3-93.3 91.4 210.5-37.9z"/><path fill="#fff" d="M306.8 250 91.6 288.7l95.3-93.5z"/><path fill="#231F20" d="M91.6 289.401c-.4 0-.7-.3-.7-.8 0-.2.1-.4.2-.5l95.4-93.5c.2-.2.6-.3.8-.1l119.9 54.7c.4.2.5.6.4 1-.1.2-.3.4-.5.4l-215.3 38.7zm95.5-93.3-93.3 91.4 210.5-37.9z"/><path fill="#fff" d="M361.4 136.101s-114.1 57.9-131.5 61.2-38-2.5-37.2 2.5 10.8 7.4 10.8 7.4-31.4 5-29.8 8.3 22.3-.8 22.3-.8-25.6 7.4-19.9 10.8 24-4.1 24-4.1-27.3 14-19.8 14.9 20.7-6.6 20.7-6.6-20.7 10.8-12.4 11.6 131.5-43 172.8-67.8"/><path fill="#231F20" d="M188.801 241.9h-.3c-1.6-.2-2.4-.7-2.6-1.6-.2-1.3 1.6-3.1 4.1-5-3.4 1.1-6.9 1.9-9.8 1.6-1.1-.1-1.8-.6-1.9-1.3-.4-2.2 6.8-6.8 13.4-10.6-5.7 1.6-12.6 3-15.9 1.1-.8-.3-1.3-1.1-1.2-2 .3-2.3 6.2-5 11.9-7.1-6 .7-12.4 1-13.4-1.2-.2-.4-.2-.9 0-1.2 1.5-3 19.2-6.2 27.2-7.6-3.1-1.2-7.7-3.5-8.3-7.1-.1-.6.1-1.3.5-1.7 1.4-1.6 6-1.4 12.8-1 7.2.4 16.2.9 24.5-.6 17.1-3.2 130.1-60.6 131.3-61.1.4-.2.8 0 1 .3.2.4 0 .8-.3 1-4.7 2.4-114.4 58-131.7 61.3-8.5 1.6-17.6 1.1-24.9.7-5.5-.3-10.6-.6-11.6.5-.1.1-.1.3-.1.5.6 3.7 7.6 6.2 10.2 6.8.4.1.7.5.6.9q-.15.45-.6.6c-13.4 2.1-28.2 5.5-29.2 7.3 1 1.5 10.5.9 21.5-1.3.4-.1.8.1.9.5s-.1.8-.5.9c-9.5 2.8-19.9 6.9-20.2 8.9 0 .2.3.4.5.5 4.5 2.6 18.4-2.1 23.3-4.2.4-.2.8 0 1 .4s0 .8-.4 1c-9.8 5-20.4 11.5-20.7 13.3.2.1.4.1.6.1 5.6.6 14.7-3.7 18.5-5.6l1.7-.9c.4-.2.8 0 1 .3.2.4.1.8-.3 1-.1.1-.8.5-1.9 1-7.4 4-12.4 7.9-12.1 8.8 0 0 .2.3 1.3.4 3.6.3 34-9.3 73.7-24.2 21.3-8 73.4-28.3 98.7-43.5.4-.2.8-.1 1 .3s.1.8-.3 1c-39.9 23.8-161.4 67.8-173 67.8"/><path fill="#000" d="M340.3 185.1s-17.6-41.3-16-41.9 35.3-22.6 38-21 13.2 33.6 9.9 43-31.9 19.9-31.9 19.9"/><path fill="#231F20" d="M344.7 185.2c-.3 0-.6-.2-.7-.5-.1-.4.1-.8.5-.9.2-.1 24.7-8.4 34.4-20.7.3-.3.8-.2 1.1.1.2.2.2.5.1.8-10 12.7-34.1 20.9-35.1 21.2zm19.6-89.8c-.4 0-.7-.4-.7-.8 0-.3.2-.6.5-.7 5.6-1.7 10.1-5.8 12.2-11.1 2.2-5.4 2.7-11.3 1.5-17-.8-5.5-3.2-10.7-6.9-14.9-4-4.2-9.6-6.5-14.6-5.9l-1.1.1c-.8.1-1.6.2-2.4.2-1 0-2-.2-3-.4l-.6-.1c-17-3.4-33.5 7.6-36.9 24.6-.9 4.5-.8 9.2.3 13.7.4 1.4 1.2 3.8 3 4 .4 0 .7.3.7.8s-.3.7-.8.7h-.2c-2-.2-3.5-2.1-4.3-5.1-4.4-17.6 6.4-35.4 24-39.8 4.7-1.2 9.6-1.3 14.4-.3l.6.1c1.6.5 3.3.5 4.9.2.4-.1.8-.1 1.1-.2 5.6-.6 11.6 1.8 15.9 6.4 3.9 4.4 6.4 9.8 7.3 15.6 1.2 6 .7 12.2-1.6 17.9-2.6 6-7.5 10.5-13.2 12z"/><path fill="#231F20" d="M352.801 44.6s7.6-5.7 20-2.6 17.1 25.6 5.5 37.8c0 0 1.8-33.1-25.5-35.2"/><path fill="#231F20" d="M396.901 115.501c-6.5-.6-12.1-2.7-16.2-6.1-4.8-4-7.6-9.9-7.3-15.5 0-.4.4-.7.8-.7s.7.4.7.8c-.3 5.1 2.3 10.6 6.8 14.2 3.6 2.8 7.9 4.7 12.4 5.4-1.2-1.4-2-3.1-2.3-5-.2-2.8.2-5.6 1.3-8.2 1.8-4.4 3.9-8.6 6.4-12.6 3.7-6.2 7.1-12.1 7.9-19 1.5-13.4-8.1-25.5-21.5-27-3.1-.3-6.1-.1-9.1.7-.4.1-.8-.1-.9-.5s.1-.8.5-.9c13.8-3.8 28 4.4 31.8 18.2.9 3.2 1.1 6.4.7 9.7-.8 7.2-4.5 13.5-8.1 19.6-2.5 3.9-4.6 8.1-6.3 12.4-1 2.3-1.4 4.9-1.2 7.4.2 2.4 1.7 4.6 3.9 5.6.4.2.6.6.4 1-.1.3-.4.5-.7.5m-67.3 33.799c-.4 0-.8-.3-.8-.7 0-.3.1-.5.4-.6l30.2-18.6c.3-.2.8-.1 1 .2s.1.8-.2 1l-30.2 18.6c-.1 0-.3.1-.4.1"/><path fill="#fff" d="M335.001 237.3c-.1 0-.2 0-.4-.1-.3-.2-.5-.6-.3-1l16-29.2c.2-.3.5-.5.9-.4.3.1.6.4.6.7v25.9c0 .4-.3.8-.8.8s-.8-.3-.8-.8v-23l-14.6 26.6c-.1.4-.3.5-.6.5"/><path fill="#D1D3D4" d="M291.801 39.9s-3.1 11.8-13 12c0 0 10.4 2.9 12.6 12.7 0 0 2.8-8.9 12.1-11.3 0 .1-8.4-2.8-11.7-13.4M8 129.2s7.9 11.3.9 20c0 0 10.1-6.9 20.2-1.6 0 0-5.7-8.9-1-18.7 0 0-8.5 5.2-20.1.3m70.7-92s1.7 19.7-13.3 25.4c0 0 17.5-1.2 26.1 12.5 0 0-.6-15.1 12.2-23.8.1 0-14.2.3-25-14.1"/></svg>