<svg xmlns="http://www.w3.org/2000/svg" width="422" height="284" fill="none"><path fill="#fff" d="M420.6 75H226.5v208.1h194.1z"/><path fill="#231F20" d="M420.501 283.8h-194c-.4 0-.7-.3-.7-.7V75c0-.4.3-.7.7-.7h194.1c.4 0 .7.3.7.7v208.1c-.1.4-.4.7-.8.7m-193.3-1.4h192.7V75.7h-192.7z"/><path fill="#fff" d="M420.6 75H226.5v23.1h194.1z"/><path fill="#231F20" d="M420.501 98.7h-194c-.4 0-.7-.3-.7-.7V75c0-.4.3-.7.7-.7h194.1c.4 0 .7.3.7.7v23c0 .4-.4.7-.8.7q.15 0 0 0m-193.3-1.4h192.7V75.6h-192.7z"/><path fill="#000" d="M236.801 89.1a3 3 0 1 0 0-6 3 3 0 0 0 0 6"/><path fill="#D1D3D4" d="M247.5 89.1a3 3 0 1 0 0-6 3 3 0 0 0 0 6m10.602 0a3 3 0 1 0-.001-6.001 3 3 0 0 0 .001 6M398.201 229.3h-24.8c-.4 0-.7-.3-.7-.7s.3-.7.7-.7h24.8c.4 0 .7.3.7.7 0 .3-.3.7-.7.7m-9.2 14.7h-15.6c-.4 0-.7-.3-.7-.7s.3-.7.7-.7h15.6c.4 0 .7.3.7.7s-.3.7-.7.7m7.2 23.5h-18.7c-2.6 0-4.8-2.1-4.8-4.8v-3c0-2.6 2.1-4.8 4.8-4.8h18.7c2.6 0 4.8 2.1 4.8 4.8v3c0 2.6-2.2 4.8-4.8 4.8m-18.7-11.3c-1.9 0-3.4 1.5-3.4 3.4v3c0 1.9 1.5 3.4 3.4 3.4h18.7c1.9 0 3.4-1.5 3.4-3.4v-3c0-1.9-1.5-3.4-3.4-3.4z"/><path fill="#fff" d="M311.3 188.7s-43.3 6.2-49.1 0-19.1-41.4-19.1-41.4L227.6 160s11.6 66 31.2 65.6 63.6-16.5 63.6-16.5z"/><path fill="#231F20" d="M258.7 226.3c-19.9 0-31.2-63.5-31.7-66.2 0-.2 0-.5.2-.7l15.4-12.7c.2-.1.4-.2.6-.1s.4.2.5.4c.1.4 13.3 35.2 19 41.2 4.6 4.8 36.5 1.5 48.5-.2.3 0 .6.1.7.4l11.1 20.5c.2.3.1.8-.3 1h-.1c-.4.2-44.3 16.2-63.8 16.5zm-30.3-66c1 5.5 12.3 64.6 30.2 64.6h.1c17.9-.3 56.6-14 62.6-16.1l-10.5-19.3c-2.2.3-11.9 1.6-21.9 2.2-15.5 1-24.7.2-27.3-2.5-5.4-5.7-16.7-35-18.9-40.7z"/><path fill="#fff" d="M195.6.9H1.5V209h194.1z"/><path fill="#231F20" d="M195.501 209.7h-194c-.4 0-.7-.3-.7-.7V.9c0-.4.3-.7.7-.7h194.1c.4 0 .7.3.7.7V209c-.1.4-.4.7-.8.7m-193.4-1.4h192.7V1.6H2.201z"/><path fill="#fff" d="M195.6.9H1.5V24h194.1z"/><path fill="#231F20" d="M195.501 24.6h-194c-.4 0-.7-.3-.7-.7V.8c0-.4.3-.7.7-.7h194.1c.4 0 .7.3.7.7v23c-.1.5-.4.8-.8.8m-193.4-1.4h192.7V1.5H2.201z"/><path fill="#000" d="M11.8 15a3 3 0 1 0 0-6 3 3 0 0 0 0 6"/><path fill="#D1D3D4" d="M22.4 15a3 3 0 1 0 0-6 3 3 0 0 0 0 6m10.702 0a3 3 0 1 0 0-6 3 3 0 0 0 0 6m24.799 33h-35.5c-.4 0-.7-.3-.7-.7s.3-.7.7-.7h35.5c.4 0 .7.3.7.7s-.3.7-.7.7m-17.7 20h-17.8c-.4 0-.7-.3-.7-.7s.3-.7.7-.7h17.8c.4 0 .7.3.7.7s-.3.7-.7.7M31.3 103.2c-6 0-10.9-4.9-10.9-10.9s4.9-10.8 10.8-10.8c6 0 10.9 4.9 10.9 10.8 0 6.1-4.8 10.9-10.8 10.9m0-20.3c-5.2 0-9.5 4.2-9.5 9.4s4.2 9.4 9.4 9.4 9.5-4.2 9.5-9.4c.1-5.1-4.2-9.4-9.4-9.4"/><path fill="#D1D3D4" d="M31.3 96c-.3 0-.4-.1-.6-.3l-4.1-5.6c-.2-.3-.2-.8.2-1 .3-.2.8-.2 1 .1l3.6 4.9 14.2-14c.3-.3.7-.3 1 0s.3.7 0 1L31.8 95.7c-.1.2-.3.3-.5.3"/><path fill="#231F20" d="M53.1 185.2 48.6 209h74.1l-4.1-12z"/><path fill="#231F20" d="M122.7 209.7H48.6c-.2 0-.4-.1-.5-.2-.1-.2-.2-.4-.2-.6l4.6-23.8c.1-.4.4-.6.8-.6l65.5 11.7c.3 0 .5.2.5.5l4.1 12.1c.1.4-.1.8-.4.9zm-73.3-1.4h72.3l-3.6-10.8L53.7 186z"/><path fill="#fff" d="m147.6 117.9 42 50.6-18.5 7.6-45-47.9z"/><path fill="#231F20" d="M171.1 176.8c-.2 0-.4-.1-.5-.2l-45-47.9c-.2-.2-.2-.4-.2-.6s.2-.4.4-.5l21.5-10.3c.3-.1.6-.1.8.2l42 50.6c.1.2.2.4.1.6s-.2.4-.4.5l-18.5 7.6zm-43.9-48.4 44 46.9 17.2-7-41.1-49.5z"/><path fill="#000" d="m134.901 91.5 21.3 27.8-29 15.9z"/><path fill="#000" d="M134.9 91.5c-1.8-2.9-42.1-15.5-55.4-6.2s-27.3 81.5-31 103.8l80.7 20.8s15.5-102.5 5.7-118.4"/><path fill="#231F20" d="M133.3 191.8c-.5 0-.7-.4-.7-.8.1-.6 7.2-63 4.9-78.6-.1-.4.2-.7.6-.8s.7.2.8.6c2.3 15.8-4.6 76.4-4.9 79-.1.4-.4.6-.7.6"/><path fill="#fff" d="M112.6 74.1c-4.4-1.5-8.4-3.4-11.6-7.1-1.5-1.5-2.4-3.4-2.8-5.4-.2-2.1.8-4.4 2.8-5-1.9-1.3-3.1-3.4-3.1-5.8 0-2.3.6-4.5 1.7-6.5 1.4-2.6 3.7-5.1 6.7-5.2-1.1-2.3-2.1-4.9-1.1-7.2.6-1.1 1.5-2.1 2.5-2.8 2-1.5 4.1-2.9 6.3-4 1.2-.6 2.7-1.1 3.8-.3 1.3-4.7 5.2-8.3 10.1-9.2 2.3-.5 4.8-.2 6.9.9.7.3 5.9 4.9 5.6 4.9 3.4-1 8.9-.1 11.4 2.5 2.2 2.4 3 5.7 2 8.8 2.5 1.4 4.6 3.3 6.3 5.6s2.2 5.3 1.4 8.1c-.9 2.7-3.6 4.8-6.4 4.4 2.4 2.5 2.5 6.4.3 9-2.3 2.5-5.8 3.4-9 2.2-.4-.2-.9-.3-1.3-.3-.5.2-1 .5-1.4.9-1.5 1.1-3.2.7-4.8 1.4-2.1.9-4.1 2.9-6 4.1q-2.85 1.95-6 3.6c-2.3 1.2-4.4 3.1-7 3.9-2.2.7-3.5-.3-5.6-1z"/><path fill="#231F20" d="M118.301 76.5c-1 0-2.1-.3-3-.7-.4-.2-.9-.3-1.4-.5l-1.6-.5c-3.8-1.3-8.2-3.2-11.9-7.3-1.6-1.6-2.6-3.6-2.9-5.8-.2-2 .6-4 2.2-5.2-1.5-1.5-2.5-3.5-2.5-5.6 0-2.4.6-4.8 1.8-6.9.8-1.5 2.9-4.8 6.2-5.4-1-2.2-1.7-4.7-.7-6.9q1.05-1.8 2.7-3c2-1.6 4.1-2.9 6.4-4.1 1.1-.7 2.4-.9 3.6-.7 1.6-4.6 5.6-8 10.4-8.9 2.5-.5 5.1-.1 7.4 1 2 1.5 3.8 3.1 5.6 4.8 3.5-.8 9 .1 11.7 2.8 2.3 2.4 3.2 5.8 2.3 9 2.4 1.4 4.4 3.3 6 5.5 1.8 2.5 2.3 5.7 1.5 8.7-.8 2.5-3 4.4-5.6 4.9 1.7 2.8 1.4 6.2-.6 8.7-2.5 2.7-6.3 3.7-9.8 2.4h-.1c-.3-.1-.6-.2-.9-.2-.3.1-.6.3-.8.5l-.3.2c-.9.6-1.9.9-3 1-.6.1-1.3.2-1.9.5-1.4.7-2.8 1.6-4 2.7-.6.5-1.3 1-1.9 1.4-2 1.3-4 2.5-6.1 3.7-.8.4-1.5.9-2.3 1.4-1.5 1.1-3.1 1.9-4.8 2.5-.6 0-1.2.1-1.7 0m-1.9-51.5c-.8.1-1.5.3-2.1.7-2.2 1.1-4.2 2.4-6.2 3.9-1 .6-1.8 1.5-2.3 2.5-.9 2 .1 4.5 1.1 6.7.1.2.1.5 0 .7q-.15.3-.6.3c-3.2.1-5.3 3.4-6.1 4.8-1.1 1.9-1.7 4-1.6 6.1 0 2.1 1.1 4 2.8 5.2.2.1.4.4.3.7 0 .3-.2.5-.5.6-1.7.6-2.5 2.7-2.3 4.3.3 1.9 1.2 3.6 2.6 5 3.4 3.9 7.6 5.7 11.3 6.9l1.6.5c.5.2 1 .4 1.5.5 1.1.6 2.5.8 3.7.4q2.4-.9 4.5-2.4c.8-.5 1.6-1 2.4-1.4q3.15-1.65 6-3.6c.6-.4 1.2-.9 1.9-1.4 1.3-1.1 2.7-2 4.2-2.8.7-.3 1.5-.5 2.2-.6.9-.1 1.7-.3 2.4-.8l.2-.2c.4-.4 1-.7 1.5-.8q.75 0 1.5.3h.1c2.9 1.1 6.1.3 8.2-2 1.9-2.3 1.8-5.8-.2-8-.2-.2-.3-.5-.1-.8.1-.3.4-.4.7-.4 2.6.1 4.9-1.5 5.7-4 .7-2.6.2-5.3-1.3-7.4-1.6-2.2-3.6-4.1-6-5.4-.3-.2-.4-.5-.3-.8.9-2.8.2-5.9-1.9-8.1-2.4-2.4-7.6-3.3-10.7-2.4-.4.1-.7-.1-.9-.4-1.7-1.6-3.4-3.2-5.3-4.6-2-1-4.3-1.3-6.5-.8-4.6.9-8.2 4.2-9.5 8.6-.1.2-.2.4-.4.5s-.5 0-.7-.1q-.45-.3-.9-.3z"/><path fill="#fff" d="M144.8 63.5s3.2 11.2 1.3 12.7-5.6-1.1-5.6-1.1"/><path fill="#231F20" d="M144.6 77.3c-1.6-.2-3.2-.7-4.6-1.7-.3-.2-.5-.6-.3-1 .2-.3.6-.5 1-.3 0 0 .1 0 .1.1.9.6 3.6 2.1 4.8 1.1.9-.7-.1-6.8-1.5-11.9-.1-.4 0-.8.4-.9s.8 0 .9.4v.1c.8 2.7 3.1 11.7 1 13.4-.5.5-1.2.7-1.8.7"/><path fill="#fff" d="M149.201 42.7c.5.5.8 1.2.8 1.9.3 2.5.1 5-.5 7.4-1 4.7-2.4 9.4-4 14-2 6.1-4.1 12.2-6.4 18.2-1.4 3.8-11.5.7-12.9-1l-3.3 15.8s-5.2-.2-12.1-6.6-6.4-8.3-6.4-8.3l6.3-17.5s6.6 2.2 13.1-4.5c1-1.1 1.9-3 3.1-3.8 1.5-1 3.2-.8 4.5-2.2 1.2-1.4 1.7-3.3 1.3-5.1-.1-.4-.2-.9.1-1.1.2-.1.4-.2.7-.2 2.7-.5 4.5-3.1 4.1-5.8v-.1c2.5.8 5-1.2 7-3.1-.6.6 3.9 1.4 4 1.5.3.1.6.3.8.5z"/><path fill="#231F20" d="M122.9 99.6c-.2 0-5.6-.3-12.6-6.7-6.7-6.1-6.7-8.4-6.6-9l6.3-17.5c.1-.4.5-.5.9-.4.2.1 6.3 1.9 12.4-4.3.4-.5.8-1 1.1-1.5.5-.9 1.3-1.7 2.1-2.4q.9-.6 2.1-.9c.9-.2 1.7-.6 2.3-1.2 1.1-1.2 1.5-2.9 1.2-4.5-.2-.6-.1-1.3.3-1.8.3-.2.6-.4 1-.4 1.2-.2 2.2-.8 2.8-1.8.7-.9.9-2.1.7-3.2-.1-.2 0-.5.2-.7s.4-.2.7-.1c2.2.7 4.5-1.2 6.3-2.9.3-.3.7-.3 1 0 .1.1.2.2.2.3 1 .4 2.1.7 3.2.9l.3.1c.4.1.7.3 1 .6.6.6.9 1.4 1 2.3.5 2.6-.1 5.4-.5 7.6-.9 4.3-2.1 8.6-3.6 12.8l-.4 1.3c-2 6.1-4.1 12.2-6.4 18.2-.5 1.3-1.7 2.1-3.1 2.2-3.1.5-7.8-.9-10-2.2l-3.1 14.7c-.2.3-.5.5-.8.5M105 84.3s.2 2 6.2 7.5c5.3 4.9 9.6 6 11.1 6.3l3.2-15.2c.1-.3.3-.5.5-.5.3-.1.5 0 .7.2.8 1 6.2 3 9.7 2.5 1.1-.2 1.8-.6 2-1.3 2.3-6 4.4-12.1 6.4-18.1l.4-1.3c1.5-4.1 2.6-8.3 3.6-12.6.6-2.3.7-4.7.5-7.1 0-.5-.2-1.1-.6-1.5-.2-.1-.4-.3-.6-.4h-.1c-1.3-.2-2.5-.6-3.7-1.1-1.7 1.6-3.8 3.1-6.1 2.9 0 1.2-.3 2.3-1 3.3-.9 1.3-2.2 2.1-3.7 2.4h-.3c.1.1.1.3.1.4.4 2-.1 4.2-1.5 5.7-.8.8-1.8 1.4-2.9 1.6-.6.2-1.2.4-1.7.7-.7.6-1.3 1.2-1.7 2-.4.6-.8 1.1-1.3 1.7-5.6 5.7-11.2 5.2-13.1 4.8z"/><path fill="#fff" d="M128.801 60.2c.3-1.6.2-3.2-.4-4.8-.3-1.2-.7-2.4-1.3-3.5s-1.7-1.9-3-2.1c-1.1-.1-2.2.4-3 1.1-.8.8-1.4 1.7-1.7 2.8-1.7 4.6-.8 9.8 2.4 13.6-.1-.2-.1-.3-.2-.5"/><path fill="#231F20" d="M121.7 68.1c-.2 0-.4-.1-.5-.2-3.3-4-4.2-9.4-2.5-14.3.4-1.2 1-2.2 1.9-3.1s2.2-1.4 3.6-1.3c1.5.2 2.8 1.1 3.5 2.4.7 1.1 1.1 2.4 1.4 3.7.6 1.6.7 3.4.4 5.1-.1.4-.5.6-.8.5-.4-.1-.6-.5-.5-.8V60c.3-1.5.1-3-.4-4.4q-.45-1.8-1.2-3.3c-.5-.9-1.4-1.6-2.5-1.7-.9 0-1.8.3-2.4.9-.7.7-1.2 1.6-1.6 2.5-1.5 4.1-.9 8.7 1.7 12.2.2.1.3.2.4.4l.2.5c.1.3 0 .7-.2.9-.2.1-.3.1-.5.1m4.501 15s-4.7-3.3-6-7.6c0 0-2.6 9.4 4.5 14.7z"/><path fill="#231F20" d="M124.699 90.9c-.1 0-.3 0-.4-.1-7.4-5.5-4.8-15.3-4.8-15.4.1-.3.4-.5.7-.5s.6.2.7.5c1.2 4.1 5.7 7.2 5.7 7.2.2.2.3.4.3.7l-1.5 7.1c0 .2-.2.4-.4.5-.1-.1-.2 0-.3 0m-4.2-12.9c-.2 2.8 0 7.6 3.7 10.9l1.1-5.5c-1.8-1.4-3.5-3.3-4.8-5.4m22.314-20.686c.43-1.195.4-2.3-.068-2.469-.467-.168-1.195.664-1.626 1.859s-.4 2.3.068 2.469c.467.168 1.195-.664 1.626-1.86"/><path fill="#fff" d="m140.4 75-6-4.8s-4.6 7.6-2.4 11.6 6.9-2.8 8.4-6.8"/><path fill="#231F20" d="M133.8 83.8c-1 0-1.9-.6-2.3-1.6-2.5-4.3 2.2-12 2.4-12.3.1-.2.3-.3.5-.3s.4 0 .6.1l6 4.8c.2.2.3.5.2.8-.9 2.6-4.1 8.2-7.1 8.5zm.8-12.5c-1 1.9-3.6 7.2-1.9 10.2.5.8.9.9 1.2.9 1.7-.1 4.3-3.8 5.7-7.1z"/><path fill="#fff" d="M229.46 92.85 91.85 198.364l55.495 72.377 137.61-105.514z"/><path fill="#231F20" d="M147.3 271.5q-.3 0-.6-.3l-55.5-72.3c-.1-.1-.2-.3-.1-.5 0-.2.1-.4.3-.5L229 92.3c.3-.2.7-.2 1 .1l55.5 72.3c.1.1.2.3.1.5 0 .2-.1.4-.3.5L147.7 271.3c-.1.1-.3.2-.4.2m-54.5-72.9 54.6 71.2L284 165.1l-54.6-71.2z"/><path fill="#D1D3D4" d="M159 248.5h-.1c-.2 0-.4-.1-.5-.3-.1-.1-.2-.3-.3-.4-4.7-6.1-13.5-7.3-19.6-2.6-.3.2-.7.2-1-.1l-23.4-30.5c-.2-.3-.2-.7.1-1 6.1-4.7 7.3-13.4 2.6-19.6-.1-.1-.2-.3-.3-.4s-.2-.3-.2-.5.1-.4.3-.5l100.7-77.3c.3-.2.8-.2 1 .2.1.1.2.3.3.4 4.7 6.1 13.5 7.3 19.6 2.6.1-.1.3-.2.5-.1.2 0 .4.1.5.3l23.4 30.5c.2.3.2.7-.1 1-6.1 4.7-7.3 13.5-2.6 19.6.1.1.2.3.3.4s.2.3.2.5-.1.4-.3.5l-100.7 77.2c-.1 0-.2.1-.4.1m-12-7.6c4.7 0 9.2 2.2 12.1 5.9l99.6-76.4c-4.9-6.5-3.9-15.7 2.4-21L238.6 120c-6.7 4.7-15.9 3.3-20.9-3.2l-99.6 76.4c4.9 6.5 3.9 15.8-2.4 21l22.5 29.4c2.6-1.8 5.7-2.8 8.8-2.7"/><path fill="#fff" d="M114.8 132.8s42.8 52.2 50.5 54.1 20.5-.4 19.6 3.7-13.2 4.1-13.2 4.1 15.1 6.6 13.2 11-9 8.1-15.4 5.3-10-7.5-15.5-10.2-57.9-51.1-57.9-51.1z"/><path fill="#231F20" d="M174.2 212.7c-1.7 0-3.4-.3-4.9-1-3.2-1.5-6.1-3.4-8.8-5.7-2.1-1.8-4.3-3.3-6.8-4.6-5.6-2.7-55.9-49.3-58-51.2-.1-.1-.2-.3-.2-.5s.1-.4.2-.5l18.6-16.8c.1-.1.3-.2.5-.2s.4.1.5.2c11.9 14.5 44 52.4 50.1 53.8 3.3.6 6.6.9 10 .9 4.7.1 8.4.2 9.7 1.8.4.5.5 1.2.4 1.8-.7 3.3-7.1 4.2-10.9 4.5 4.6 2.3 12.6 6.9 11 10.7-1.3 2.6-3.5 4.7-6.3 5.7-1.6.7-3.3 1.1-5.1 1.1m-77-63c5.7 5.2 52 48 57.1 50.5 2.5 1.3 4.8 2.9 7 4.8 2.6 2.2 5.4 4.1 8.5 5.5 2.8 1.2 6 1.2 8.9 0 2.4-.9 4.4-2.6 5.6-5 1.1-2.6-6.9-7.5-12.9-10.1-.3-.1-.5-.5-.4-.8s.3-.6.7-.6c4.5 0 11.9-1 12.5-3.5.1-.2 0-.5-.1-.6-.8-1.1-4.8-1.2-8.6-1.3-3.5 0-6.9-.3-10.3-.9-7.5-1.8-45.5-47.8-50.4-53.8z"/><path fill="#000" d="m100.4 106.4 17.6 23-25 23.1-15-17.3"/><path fill="#231F20" d="M93 153.2c-.2 0-.4-.1-.5-.2l-15-17.3c-.3-.3-.2-.7.1-1s.7-.2 1 .1l14.5 16.7 24-22.1-17.2-22.5c-.1-.4 0-.8.4-.9.2-.1.499-.1.699.1l17.601 23c.2.3.2.7-.1.9l-25 23c-.1.1-.3.1-.5.2"/><path fill="#fff" d="M358.9 137.7c4.1.3 8.2 1.4 11.9 3.3 6.4 3.1 12.6 8.2 14.1 15.1 1.2 5.7-1 11.5-3.7 16.6s-6.1 10-7.6 15.6-.8 12.3 3.6 16c-5.8-2.6-11.8-5.3-16.5-9.6-2.8-2.5-5.1-5.8-5.4-9.5-.2-3.1 1-6 2.2-8.9 1.8-4.2 3.7-8.5 4-13s-1.4-9.5-5.4-11.9c-3.5-2-14.7-1.8-13-8.1 1.4-4.8 11.8-5.7 15.8-5.6"/><path fill="#231F20" d="M377.1 205.1c-.1 0-.2 0-.3-.1-5.8-2.6-11.8-5.3-16.7-9.7-3.4-3.1-5.4-6.6-5.6-10-.2-3.1.9-6.1 2.2-9.2l.2-.6c1.7-3.9 3.4-8 3.7-12.2.3-4.9-1.7-9.2-5-11.2-1.4-.6-2.9-1.1-4.4-1.4-3.3-.8-7.1-1.7-8.5-4.1-.6-1.1-.7-2.4-.3-3.5 1.5-5.5 12.4-6.4 16.5-6.2 4.2.3 8.4 1.4 12.2 3.4 4.6 2.2 12.7 7.2 14.4 15.6 1 4.9-.2 10.3-3.8 17.1-.7 1.3-1.5 2.6-2.2 3.9-2.1 3.6-4.2 7.4-5.4 11.5-1.3 4.7-1.2 11.5 3.4 15.3.3.2.3.7.1 1 0 .3-.2.4-.5.4M358 138.4c-4.7 0-13.1 1.2-14.2 5.2-.3.8-.2 1.7.2 2.4 1.1 1.9 4.6 2.7 7.6 3.4q2.55.45 4.8 1.5c3.8 2.2 6 7.1 5.7 12.5-.3 4.5-2.1 8.6-3.8 12.7l-.2.6c-1.3 3-2.3 5.7-2.1 8.5.3 3.8 3 7 5.2 9.1 3.9 3.5 8.6 6 13.4 8.1-2.9-4.3-2.8-10.1-1.6-14.3s3.4-8.1 5.5-11.8c.7-1.3 1.5-2.6 2.2-3.9 3.4-6.4 4.6-11.6 3.6-16.1-1.6-7.8-9.3-12.6-13.7-14.7-3.6-1.9-7.6-3-11.6-3.2z"/><path fill="#231F20" d="M353.901 139.1c1.4 2.4 1.9 5.1 1.5 7.8-.1 1.8-.8 3.6-1.9 5-1.5 1.7-3.7 2.5-5.9 2.3-1 0-1.9-.4-2.7-1.1-.5-.6-.9-1.4-1-2.2-1.2-5.6 2.9-22.8 10-11.8"/><path fill="#231F20" d="M348.099 155h-.6c-1.2 0-2.3-.5-3.1-1.3-.6-.7-1-1.6-1.1-2.6-.9-4.1.9-14.4 5-16.1 2-.8 4.1.4 6.2 3.7 1.5 2.5 2 5.4 1.6 8.3-.1 2-.8 3.8-2 5.4-1.6 1.7-3.7 2.6-6 2.6m1.3-18.8c-.2 0-.5 0-.7.1-3.1 1.2-5 10.5-4.1 14.5.1.7.4 1.4.8 1.9.6.5 1.4.9 2.2.9 2 .2 4-.6 5.3-2.1 1-1.3 1.6-2.9 1.7-4.6.4-2.5-.1-5.1-1.4-7.4-.9-1.6-2.4-3.3-3.8-3.3"/><path fill="#fff" d="M316.9 176.3c1.7 2 4.2 3.1 8.4 2.6 3.5-.5 6.8-1.8 9.6-3.9 11.3-8 17.1-21.6 15-35.3-2.3-13.5-15.8-27-30.3-21.8-5 1.8-8.9 5.7-10.7 10.7-1.9-.8-4.2 0-5.6 1.5-3.8 3.8-3.6 7.8-1.6 12.2 3.3 7.4 7.4 14.4 10.4 21.9 1.7 4.5 2.4 9.2 4.8 12.1"/><path fill="#231F20" d="M323.499 179.7c-2.7.2-5.4-.9-7.1-3-1.7-2-2.6-4.9-3.5-7.8-.4-1.4-.9-2.9-1.5-4.4-1.8-4.4-3.9-8.7-6-12.9-1.5-2.9-3-5.9-4.4-9-2.4-5.3-1.9-9.5 1.7-13 1.5-1.6 3.6-2.3 5.7-1.9 2-4.9 5.9-8.7 10.8-10.4 5.7-2.1 12.1-1.4 17.3 1.8 7.4 4.5 12.5 12 14 20.5 2.1 13.9-3.8 27.8-15.2 36-2.9 2.1-6.3 3.5-9.9 4-.6.1-1.2.1-1.9.1m-6-3.8c1.7 2 4.2 2.8 7.8 2.4 3.4-.5 6.6-1.8 9.3-3.8 11-7.8 16.7-21.2 14.7-34.6-1.5-8.1-6.3-15.2-13.3-19.5-4.8-3-10.8-3.6-16.1-1.7-4.8 1.7-8.5 5.5-10.2 10.2-.1.2-.2.3-.4.4q-.3.15-.6 0c-1.7-.7-3.7.2-4.9 1.3-3.2 3.2-3.6 6.6-1.4 11.5 1.4 3 2.9 6 4.3 8.9 2.1 4.2 4.3 8.6 6.1 13 .6 1.5 1 3 1.5 4.5.8 2.9 1.6 5.5 3.2 7.4"/><path fill="#fff" d="M306.101 145.1s-8.8 7.5-8.1 9.8 5.3 2.2 5.3 2.2"/><path fill="#231F20" d="M303.201 157.8c-.8 0-5.1-.1-5.9-2.7s6.1-8.7 8.3-10.5c.3-.3.7-.2 1 .1s.2.7-.1 1c-4.1 3.5-8.2 7.9-7.9 9 .5 1.5 3.6 1.7 4.6 1.7.4 0 .7.3.7.7.1.4-.2.7-.7.7q.15 0 0 0"/><path fill="#fff" d="M301.3 195.6c9.9.8 26.8-9.2 26.9-9.6 2.1-6.4 4.4-19.5 4.4-19.5s-6.7-1.9-8.4-11-10-10.5-13.3-22.4c-4.8 2.1-5.6 9.1-6.8 13.5-1.7 6.2-3.3 12.4-4.7 18.6-.9 4 9.2 6.9 11.3 6.3-1.6 4-4.7 12-9.4 24.1"/><path fill="#231F20" d="M302.399 196.4h-1.1c-.2 0-.4-.1-.5-.3s-.1-.4-.1-.6c6.6-17 7-18 8.9-23-2.6-.1-7.2-1.6-9.5-3.7-1.1-.8-1.6-2.2-1.4-3.5 1.4-6.2 3-12.5 4.8-18.6q.3-1.05.6-2.4c1-4.3 2.3-9.7 6.6-11.6q.3-.15.6 0c.2.1.3.2.4.4 1.7 6 4.6 9.2 7.4 12.3 2.6 2.9 5.1 5.6 6 10.2 1.6 8.5 7.6 10.3 7.9 10.4s.6.4.5.8c-.1.5-2.3 13.2-4.4 19.6-.5.9-16.9 10-26.7 10m0-1.4h.1c9.1 0 23.5-8 25.1-9.3 1.8-5.6 3.8-16.1 4.2-18.6-1.8-.7-6.8-3.4-8.2-11.3-.8-4.2-3-6.6-5.6-9.5s-5.7-6.2-7.5-12c-3.1 1.9-4.2 6.5-5.1 10.2q-.3 1.35-.6 2.4c-1.7 6.1-3.3 12.4-4.7 18.6-.1.9.3 1.7 1 2.2 2.6 2.4 8.2 3.7 9.4 3.3.3-.1.5 0 .7.2s.2.5.1.7c-2.2 5.8-2.2 5.9-8.9 23.1"/><path fill="#fff" d="M300.801 160.8s3.9 4.3 7.9.1Z"/><path fill="#231F20" d="M304.899 163.5c-1.8-.1-3.4-.9-4.6-2.2-.3-.3-.3-.7 0-1s.7-.3 1 0c.9 1 2.2 1.6 3.6 1.7 1.3-.1 2.4-.6 3.2-1.6.3-.3.7-.3 1 0s.3.7 0 1c-1 1.2-2.5 2-4.2 2.1m5.701 8.1s5.2 1.2 8.7-1.6c0 0-3 9.3-11.9 9.7z"/><path fill="#231F20" d="M307.499 180.4q-.3 0-.6-.3c-.1-.2-.2-.4-.1-.7l3.1-8.1c.1-.3.5-.5.8-.4 0 0 5 1.1 8.1-1.5.3-.2.7-.2 1 .1.2.2.2.4.1.7.1.1-3.2 9.8-12.4 10.2m3.6-8-2.5 6.5c5.1-.7 7.9-4.7 9.2-7.2-2.2.9-4.5 1.1-6.7.7m-1.168-29.408c.265-1.242.085-2.333-.401-2.437s-1.095.82-1.359 2.062c-.265 1.243-.086 2.334.401 2.437.486.104 1.094-.819 1.359-2.062"/><path fill="#fff" d="M317.699 151.9c.6-1.5 1.6-2.8 2.9-3.7q1.35-1.35 3-2.1c1.1-.6 2.5-.6 3.6-.1 1 .6 1.6 1.5 1.9 2.6.2 1.1.2 2.2-.1 3.3-1.1 4.8-4.7 8.6-9.5 10l.4-.3"/><path fill="#231F20" d="M319.601 162.5c-.4 0-.7-.3-.7-.7 0-.2.1-.5.3-.6l.5-.3c.2-.1.4-.1.5-.1 4.1-1.5 7.1-5 8.1-9.2.3-1 .3-2 .1-3-.2-.9-.7-1.7-1.5-2.1-1-.4-2.1-.4-3 .1-1 .5-2 1.2-2.9 2-1.2.9-2.1 2-2.7 3.4-.1.4-.5.6-.9.4-.3-.1-.5-.5-.4-.8.6-1.6 1.7-3 3.1-4.1 1-.9 2-1.7 3.2-2.3 1.3-.6 2.9-.6 4.2 0 1.1.7 2 1.8 2.2 3.1.2 1.2.2 2.4-.1 3.6-1.2 5-5 9-10 10.5.1 0 0 0 0 .1"/><path fill="#000" d="M299.7 188.3s30-12.1 39.3-1.5 14.5 35 10.6 88l-70.1-2.4c0-.2 5.6-77.6 20.2-84.1"/><path fill="#fff" d="M258.101 204.3c-3.2-2.8-30.1-38.5-30.5-44.3s-2.8-16-4.2-15.3-2.1 10-2.1 10-6.6-11.9-9.5-11.9-9.5 7.8-9.1 11.9 31.2 77.6 45.5 79.7 51.7-14.7 55.1-15.4 15.9-28 0-32c.1 0-41.9 20.1-45.2 17.3"/><path fill="#231F20" d="M251 235.2c-.9 0-1.9-.1-2.8-.2-15-2.2-45.7-75.8-46.1-80.3-.2-2.6 2.1-6.4 4.3-8.8.8-.9 3.5-3.8 5.5-3.9 2.5 0 6.7 6.4 8.9 10.3.4-3.5 1-7.7 2.3-8.3.3-.2.7-.1 1 .1 2 1.1 3.9 11.1 4.2 15.8.3 5.4 26.4 40.5 30.2 43.8 2 1.5 24.2-7.7 44.5-17.5.1-.1.3-.1.5 0 5.6 1.4 8.5 5.9 8.4 12.8-.2 8.7-5.7 20.1-8.4 20.6-.7.1-3.3 1.1-6.5 2.4-11.3 4.5-33.8 13.2-46 13.2m-39.1-91.7c-.8 0-2.5 1.1-4.5 3.4-2.5 2.8-4.1 5.9-3.9 7.7.4 4.7 31.7 77.1 44.9 79 11 1.6 36-8.2 48.1-12.9 3.6-1.4 6-2.3 6.8-2.5 1.5-.3 7.1-10.3 7.3-19.3.1-6.2-2.2-10-7.1-11.3-1.6.8-11.3 5.4-21.2 9.6-22.2 9.5-23.9 8.1-24.6 7.5-3-2.6-30.4-38.5-30.7-44.8-.3-5.4-2.2-13.1-3.3-14.5-.6 1.1-1.3 5.4-1.6 9.2 0 .3-.2.6-.5.6-.3.1-.6-.1-.8-.3-3.2-5.4-7.4-11.4-8.9-11.4m67.6 128.7-1.6 10.9h71.7v-8.4z"/><path fill="#231F20" d="M349.599 283.8h-71.7c-.4 0-.7-.3-.7-.7v-.1l1.6-10.9c0-.4.4-.6.7-.6l70.1 2.4c.4 0 .7.3.7.7v8.4c0 .5-.3.8-.7.8m-70.9-1.4h70.2v-7l-68.8-2.4z"/></svg>