<svg xmlns="http://www.w3.org/2000/svg" width="269" height="239" fill="none"><path fill="#fff" d="M126.9 237.5h5.7l16.6-73.3h-8z"/><path fill="#231F20" d="M132.6 237.9H127c-.1 0-.3-.1-.4-.2s-.1-.2-.1-.4l14.3-73.3c0-.2.2-.4.4-.4h8c.1 0 .3.1.4.2s.1.3.1.4l-16.6 73.3c0 .3-.2.5-.5.4m-5.1-.9h4.7l16.4-72.4h-7zm1.899-122.3s-43.7 15.4-48.9 23.6-7.8 82.3-7.8 82.3l23.6 2.5s6.4-67.5 9.7-70.5 59.9-34.3 59.9-34.3z"/><path fill="#231F20" d="m96.4 223.6-23.7-2.5c-.2 0-.4-.2-.4-.5.1-3 2.6-74.3 7.9-82.6s47.301-23.2 49.101-23.8h.2l36.5 3.6c.2 0 .3.2.4.4 0 .2 0 .4-.2.5-.6.3-56.6 31.3-59.8 34.3-2.3 2.1-7 43.2-9.6 70.2 0 .1-.1.2-.1.3-.2.1-.2.1-.3.1m-23.2-3.3 22.8 2.4c.8-8.7 6.501-67.4 9.801-70.4 3.1-2.8 50.2-29 58.8-33.7l-35-3.4c-2.2.8-43.6 15.6-48.6 23.4s-7.6 75.7-7.8 81.7"/><path fill="#231F20" d="M177.199 151.2c-1.1 0-56.3.6-56.3.6l26.1 58.8-23.1 9.4s-36-66.2-31.9-76.1 61.3-27.8 61.3-27.8l28.3 7.1c0 .1.9 28-4.4 28"/><path fill="#231F20" d="M123.9 220.4c-.2 0-.3-.1-.4-.2-1.5-2.7-36-66.5-31.9-76.5s59.2-27.3 61.6-28h.2l28.3 7.1c.2.1.3.2.3.4 0 1 .6 23.7-3.3 27.8-.4.4-.9.7-1.5.7l-55.7.5 25.8 58.2v.3c0 .1-.1.2-.2.2l-23.1 9.3c0 .2 0 .2-.1.2m29.4-103.9c-2.9.9-57 18.1-60.9 27.5-3.9 9.2 28.9 70.2 31.7 75.4l22.3-9-25.9-58.4c-.1-.2 0-.5.2-.6h.2c.6 0 55.2-.6 56.3-.6.3 0 .7-.2.9-.4 3.5-3.6 3.1-23.9 3.1-26.8z"/><path fill="#fff" d="M118.001 83.8s-33.2-7.1-40.9-11.4c0 0-4.2-9.3-5.7-9.2s2.2 8.4 2.2 8.4-13.2-4.6-13.9-3.3.7 1.7.7 1.7-1.7-.1-1.5 1 .9.9.9.9-1.8.2-1.7 1.2 1.4 1 1.4 1-2.2-.2-1.3 1.2 12.2 5.4 18.8 8.3 46.7 21.4 46.7 21.4z"/><path fill="#231F20" d="M123.8 105.7h-.2c-.4-.2-40.2-18.5-46.7-21.4-2.2-1-5-2.1-7.8-3.2-6.5-2.6-10.6-4.3-11.2-5.3-.3-.4-.4-.9-.2-1.3.1-.1.2-.3.3-.3-.2-.2-.3-.5-.3-.7-.1-.3 0-.6.2-.9.2-.2.5-.4.8-.6-.1-.2-.2-.4-.2-.6-.1-.3 0-.7.2-1 .2-.2.3-.3.6-.4-.1-.1-.1-.2-.2-.3-.2-.5-.1-1 .2-1.4.7-1.3 7.5.7 13.5 2.8-1-2.3-2.6-6.6-2-7.7.1-.2.3-.4.6-.4 1.6-.2 4.4 5.7 6.1 9.3 7.8 4.1 40.3 11.2 40.6 11.2.2 0 .3.2.3.3l5.9 21.4c0 .2 0 .4-.1.5zM58.6 74.9c0 .1.1.2.2.3.5.8 6.2 3.1 10.8 4.9 2.7 1.1 5.5 2.2 7.8 3.2 6 2.7 39.9 18.3 45.8 21l-5.5-20.2c-3.4-.7-33.3-7.3-40.7-11.3-.1 0-.2-.1-.2-.2-1.8-4-4.3-8.5-5.1-8.9-.2.8 1.1 4.6 2.5 7.8.1.2 0 .4-.1.5s-.3.2-.5.1c-5.8-2-12.6-3.9-13.4-3.4-.1.2-.1.4-.1.6.1.2.3.4.6.5.2.1.4.3.3.5 0 .2-.2.4-.5.4s-.7 0-1 .2v.2c.1.4.3.6.3.6h.1c.3 0 .5.2.5.4s-.1.4-.3.5h-.2c-.4 0-.8.2-1.1.4v.2c.1.4.4.6.8.6h.2c.2 0 .4.2.4.5s-.3.5-.6.4c-.4 0-.7 0-1 .2m83.5-46.3c3.425 0 6.2-3.403 6.2-7.6 0-4.198-2.775-7.6-6.2-7.6-3.424 0-6.2 3.402-6.2 7.6s2.776 7.6 6.2 7.6"/><path fill="#231F20" d="M142.1 29c-3.7 0-6.6-3.6-6.6-8s3-8 6.6-8 6.7 3.6 6.7 8-3 8-6.7 8m0-15.2c-3.2 0-5.8 3.2-5.8 7.2s2.6 7.2 5.8 7.2 5.8-3.2 5.8-7.2-2.6-7.2-5.8-7.2"/><path fill="#fff" d="M190.8 52.6c-2.2-2.4-5.2-4.8-5-8 .1-1.1.5-2.2.6-3.3.3-3.2-2.2-6-4.8-7.9s-5.6-3.5-7.2-6.3c-2.9-5-1-11.3-3.6-16.6-2.4-5-7-8.5-12.5-9.6-4.1-.8-8.9-.6-12.3 1.9s-5.7 6.3-6.4 10.5c-.5 3.4.1 6.8.4 10.3.3 3.4.1 7.1-1.7 10s-5 4.5-7.8 6.4c-4.7 3.2-8 11.2-5.4 16.4 3.4 6.8 10 11.3 16.2 15.2 9.9 6.1 20.9 11.5 32.5 13.4 4.9.8 10.2.9 14.8-1.1 12.5-5.4 10.1-23 2.2-31.3"/><path fill="#231F20" d="M180 86c-2.1 0-4.2-.2-6.2-.5-9.9-1.6-20.3-5.9-32.6-13.4-6.1-3.7-12.9-8.3-16.4-15.4-2.8-5.6.7-13.7 5.6-17 .5-.4 1.1-.7 1.7-1.1 2.2-1.4 4.6-2.9 6-5.2 1.9-3 1.9-7 1.7-9.7-.1-.8-.1-1.7-.2-2.5-.4-2.6-.4-5.3-.1-7.9.7-4.3 3-8.2 6.6-10.8 3-2.2 7.7-3 12.7-2 5.6 1.1 10.3 4.8 12.8 9.9 1.3 2.6 1.5 5.4 1.6 8.2.2 3 .4 5.8 1.9 8.3 1.2 2.1 3.3 3.5 5.4 4.9.6.4 1.1.8 1.7 1.2 2.4 1.8 5.3 4.7 5 8.3-.1.5-.2 1.1-.3 1.6-.1.6-.2 1.1-.3 1.7-.1 2.6 1.9 4.7 3.9 6.7l1 1c5.1 5.4 7.7 14.1 6.3 21.1-.8 4.9-4.1 9-8.6 10.9-3.1 1.2-6.2 1.8-9.2 1.7M154.2 1c-2.8-.1-5.6.7-7.9 2.2-3.3 2.4-5.6 6.1-6.2 10.2-.3 2.6-.2 5.1.1 7.7.1.8.2 1.7.2 2.5.2 2.8.2 7-1.8 10.3-1.5 2.4-4 4-6.3 5.5-.6.3-1.1.7-1.6 1.1-4.4 3-7.8 10.8-5.2 15.8 3.4 6.8 10.1 11.3 16.1 15 12.2 7.5 22.5 11.7 32.3 13.3 6 1 10.7.6 14.5-1.1 4.3-1.8 7.3-5.7 8.1-10.3 1.3-6.8-1.1-15.1-6.1-20.3-.3-.3-.6-.7-1-1-2-2.1-4.3-4.4-4.2-7.4 0-.6.2-1.2.3-1.8l.3-1.5c.3-3.2-2.3-5.8-4.6-7.5-.6-.4-1.1-.8-1.7-1.2-2.1-1.5-4.3-3-5.6-5.2-1.6-2.7-1.8-5.8-2-8.8-.2-2.7-.4-5.4-1.6-7.8-2.3-4.8-6.8-8.3-12.1-9.4-1.3-.2-2.6-.3-4-.3"/><path fill="#000" d="m133.3 54-19.8 26.9s1.1 3.6 10.4 24.4C132.1 101.2 145 79 145 79z"/><path fill="#000" d="M154.7 43.9s-17.9 2-22.2 10.7-3.1 60.1-3.1 60.1l57.7 1.3s-.3-56-7.7-69.4c-2.7-2.8-7.7-3.6-24.7-2.7"/><path fill="#fff" d="m149.401 37.8-.1 10.5s1.1 5.8 7.4 4.1c3.8-1.1 6.9-3.9 8.5-7.5l-.7-18.1c-.8-3.2-1.2-6.5-1.1-9.7-7.7-.1-13.8-6-13.8-6s-2.7 4-3.8 5.3c-.9.9-1.7 2-2.4 3.2-1.1 2-1 4.5-1 6.8 0 2.6.3 5.3.8 7.9 1.1 4.7 6.2 3.5 6.2 3.5"/><path fill="#231F20" d="M154.6 53.2c-1.1 0-2.1-.3-3-.8-1.4-.9-2.3-2.4-2.6-4v-10c-1.4.2-2.8-.1-4-.8-1.2-.8-1.9-2-2.2-3.4-.5-2.6-.8-5.3-.8-8-.1-2.2-.1-4.8 1-7 .7-1.2 1.6-2.2 2.6-3.2 1.1-1.2 3.7-5.2 3.8-5.2.1-.1.2-.2.3-.2s.3 0 .4.1c.1 0 6.1 5.7 13.5 5.8.1 0 .2.1.3.1.1.1.2.2.2.3-.1 3 .1 5.9.9 8.8.1.3.1.6.2.9 0 0 0 .3.7 18.1v.2c-1.6 3.8-4.8 6.7-8.8 7.8-.9.3-1.7.5-2.5.5m-4.8-4.9c.5 2.7 3.1 4.5 5.7 4 .4-.1.7-.2 1.1-.3 3.6-1.1 6.6-3.7 8.1-7.1-.1-1.4-.7-17.9-.7-18 0-.2-.1-.5-.2-.7-.7-2.8-1-5.7-.9-8.6-6.6-.3-11.8-4.4-13.3-5.7-.7 1.1-2.6 3.8-3.6 4.9-.9.9-1.7 1.9-2.3 3.1-1 1.9-1 4.4-.9 6.5 0 2.6.3 5.2.8 7.8.2 1.1.8 2.1 1.8 2.8 1.2.6 2.6.8 3.9.6.1 0 .3 0 .4.1s.2.2.2.4z"/><path fill="#231F20" d="M149.5 43s4.2.2 7-2.6c1.6-1.5 2.4-3.5 2.3-5.7 0 0-4.6 3.1-9.4 3.2z"/><path fill="#231F20" d="M149.7 43.4h-.2c-.2 0-.4-.2-.4-.4l-.1-5.2c0-.2.2-.4.4-.4 4.6-.1 9.1-3.1 9.1-3.1.1-.1.3-.1.4 0l.3.3c.1 2.3-.8 4.5-2.4 6-1.9 1.8-4.5 2.8-7.1 2.8m.2-5.2.1 4.3c2.3 0 4.5-.9 6.2-2.5 1.3-1.2 2-2.8 2.2-4.6-2.6 1.6-5.5 2.5-8.5 2.8"/><path fill="#fff" d="M153.101 22.8s-3.4 5-2.6 5.9 3 .3 3 .3"/><path fill="#231F20" d="M152.1 29.6c-.7.1-1.4-.2-1.9-.6-.9-1 1.2-4.5 2.5-6.5.1-.2.4-.3.6-.1.2.1.3.4.1.6-1.6 2.4-2.8 4.9-2.6 5.4.4.5 1.8.3 2.6.2.2-.1.5.1.5.3.1.2-.1.5-.3.5-.4.1-.9.2-1.5.2m-3.116-7.722c.024-.607-.225-1.11-.556-1.122-.331-.014-.619.468-.643 1.075-.023.607.226 1.11.557 1.123s.619-.469.642-1.076m7.944-.9c.024-.607-.225-1.11-.557-1.122-.331-.013-.618.468-.642 1.075s.225 1.11.556 1.123.619-.469.643-1.076M166.6 30.1c3.425 0 6.2-3.403 6.2-7.6 0-4.198-2.775-7.6-6.2-7.6-3.424 0-6.2 3.402-6.2 7.6s2.776 7.6 6.2 7.6"/><path fill="#231F20" d="M166.6 30.5c-3.7 0-6.6-3.6-6.6-8s3-8 6.6-8 6.7 3.6 6.7 8-3.1 8-6.7 8m0-15.2c-3.2 0-5.8 3.2-5.8 7.2s2.6 7.1 5.8 7.1 5.8-3.2 5.8-7.1-2.6-7.2-5.8-7.2"/><path fill="#231F20" d="M164.8 16.5c-1.1-5.3-3.3-10.3-6.3-14.7 1.5.3 3 .8 4.3 1.5 0 0 5.1 7.1 6 15.3z"/><path fill="#231F20" d="M168.8 19.1c-.1 0-.1 0-.2-.1l-3.9-2.1c-.1-.1-.2-.2-.2-.3-1.1-5.2-3.2-10.2-6.2-14.5-.1-.1-.1-.3 0-.5s.3-.2.4-.2c1.5.3 3 .8 4.4 1.6.1 0 .1.1.2.1.2.3 5.2 7.3 6 15.5 0 .2 0 .3-.2.4-.2 0-.2.1-.3.1m-3.6-2.9 3 1.6c-.9-5.1-2.8-9.9-5.7-14.2q-1.5-.75-3-1.2 4.05 6.45 5.7 13.8"/><path fill="#fff" d="M164.801 28.6c-.1 0-.2 0-.3-.1-2-1.9-2.9-3.9-2.8-5.9.2-2.2 1.3-4.2 3-5.6q.3-.3.6 0t0 .6l-.1.1c-1.5 1.3-2.5 3.1-2.7 5 0 2 1 4 2.5 5.2.2.2.2.5 0 .6 0 0-.1.1-.2.1m-13.901 3 2.7-.7s.6 3.9-1 4.3-1.7-3.6-1.7-3.6"/><path fill="#231F20" d="M152.4 35.7c-.3 0-.5-.1-.7-.2-1.1-.8-1.2-3.5-1.2-3.8 0-.2.1-.4.3-.4l2.7-.7c.1 0 .2 0 .4.1.1.1.2.2.2.3.1.7.5 4.3-1.3 4.8-.2-.1-.3-.1-.4-.1m-1.1-3.7c.1 1 .4 2.4.9 2.7.1.1.2.1.3.1.7-.2.8-1.9.7-3.3zm-21.999 72c-.3-.1-.5-.3-.4-.5l9.8-44.9c.1-.2.3-.4.5-.3s.4.3.3.5l-9.8 44.9c-.1.2-.2.3-.4.3"/><path fill="#fff" d="M125.301 152.1v.8c0 6.2 5.1 11.3 11.3 11.3h55.7c6.2 0 11.3-5.1 11.3-11.3v-78c0-8.2-14.5-9.9-18.6-9.3v48.9s-20.1-2.9-28.1 9.9c-4.7 7.4-5.2 27.2-5.2 27.2z"/><path fill="#231F20" d="M192.301 164.6h-55.7c-6.5 0-11.8-5.3-11.8-11.8v-.8c0-.2.2-.5.4-.5l26-.5c.1-3 .9-20.1 5.3-27 7.4-11.8 24.8-10.5 28-10.2V65.4c0-.2.2-.4.4-.4 3-.4 11.9.3 16.5 4.3 1.7 1.3 2.6 3.4 2.6 5.5v78c0 6.5-5.2 11.8-11.7 11.8m-66.6-12.1v.3c0 6 4.9 10.8 10.9 10.9h55.7c6 0 10.8-4.9 10.8-10.9v-78c0-1.9-.9-3.6-2.3-4.8-4.1-3.6-12.2-4.4-15.4-4.1v48.5c0 .1-.1.3-.2.3-.1.1-.2.1-.4.1s-19.9-2.7-27.7 9.7c-4.6 7.2-5.1 26.8-5.1 27s-.2.4-.4.4z"/><path fill="#000" d="M179.4 46.6S197.2 82 203 90.3s5.2 19.8 5.2 19.8l-17.6-1.3s-16.1-26.2-20.7-32.7z"/><path fill="#fff" d="M208.301 110s-6.3-11.5-14.6-12.9-42.6 3.3-42.6 3.3-5.2-2.2-7.4-1.1-11.8 6.6-10.4 8.5 4.7-.8 6.9 0 7.1.6 10.4.8 58 5.3 57.7 1.4"/><path fill="#231F20" d="M197.7 112c-11.5 0-30-1.4-46.3-2.8l-.9-.1c-1.1-.1-2.4-.1-3.7-.1-2.6-.1-5.4-.1-6.9-.7q-1.5-.3-3 .3c-1.5.4-3.1.9-4.1-.5-.2-.3-.3-.7-.2-1 .7-2.9 10.7-8.1 10.8-8.1 2.2-1.1 6.9.7 7.7 1 2.6-.4 34.6-4.6 42.6-3.3 8.4 1.4 14.6 12.7 14.9 13.1 0 .1.1.1.1.2 0 .3-.1.5-.3.7-.8.9-4.8 1.3-10.7 1.3m-58.5-4.7c.4 0 .8.1 1.1.2 1.4.5 4 .6 6.6.6 1.4 0 2.6.1 3.7.1l.9.1c39.9 3.5 55.2 3.1 56.3 1.8-.8-1.4-6.7-11.3-14.1-12.5-8.1-1.4-42.1 3.2-42.5 3.3h-.2c-1.4-.6-5.4-1.9-7-1.1-2.7 1.4-9.8 5.6-10.3 7.6v.3c.6.8 1.5.6 3.1.1.7-.3 1.5-.5 2.4-.5m43.101-12.8c-.2 0-.3-.1-.4-.3l-12.1-26.4c-.1-.2 0-.5.2-.6s.5 0 .6.2l12.1 26.4c.1.2 0 .5-.2.6-.1.1-.2.1-.2.1"/><path fill="#fff" d="M100.8 170.4c-.2 0-.3-.1-.4-.3-1.2-2.6-11.3-25.3-8.7-28.8s40.6-18.8 42.2-19.5c.2-.1.5 0 .6.2s0 .5-.2.6h-.1c-11 4.4-39.9 16.6-41.9 19.2-1.7 2.3 4.4 17.9 8.9 27.9.1.2 0 .5-.2.6 0 .1-.1.1-.2.1m46.2 40.2s4.9 9.2 4.1 9.7-35.5 17.4-34.3 14.1 7.1-14.4 7.1-14.4"/><path fill="#231F20" d="M117.2 235.2c-.2 0-.4 0-.6-.1-.3-.2-.3-.6-.2-.9 1.3-3.3 6.8-14.1 7.1-14.5.1-.2.4-.3.6-.2s.3.4.2.6c-.1.1-5.6 10.8-7 14.2 3.5 0 30.8-12.9 33.3-14.4 0-1-2.1-5.3-4.1-9.2-.1-.2 0-.5.2-.6s.5 0 .6.2c5 9.5 4.3 10.1 4 10.3s-29.2 14.6-34.1 14.6"/><path fill="#fff" d="m96.4 223.2-1.6 12s-39.4 1.3-37.9-.5 15.9-13.9 15.9-13.9"/><path fill="#231F20" d="M71.3 236.1c-8.1 0-14.6-.3-15-1.1-.1-.2-.1-.5.1-.6 1.5-1.8 15.4-13.5 16-14 .2-.2.5-.1.6.1.2.2.2.5 0 .6-.1.1-13.2 11-15.6 13.6 3 .9 23.7.5 36.9.1l1.6-11.6c0-.3.3-.4.5-.4s.4.3.4.5l-1.6 12c0 .2-.2.4-.4.4-6.8.1-15.9.4-23.5.4"/><path fill="#fff" d="M205.8 237.5h-5.7l-16.5-73.3h7.9z"/><path fill="#231F20" d="M205.8 237.9h-5.7c-.2 0-.4-.2-.4-.4l-16.6-73.3c0-.1 0-.3.1-.4s.2-.2.4-.2h8c.2 0 .4.2.4.4l14.3 73.3c0 .1 0 .3-.1.4-.1.2-.2.2-.4.2m-5.3-.9h4.7l-14.1-72.4h-7z"/><path fill="#231F20" d="M190.999 196.8c-.1 0-.2 0-.2-.1l-43.4-25c-.2-.1-.3-.4-.2-.6s.4-.3.6-.2l43.4 25c.2.1.3.4.2.6s-.2.3-.4.3"/><path fill="#231F20" d="M142.1 196.8c-.2 0-.5-.2-.5-.4s.1-.3.2-.4l43.4-25c.2-.1.5-.1.6.2.1.2 0 .5-.2.6l-43.4 25c0-.1-.1 0-.1 0"/><path fill="#fff" d="M21.101 237.7h-3.9l8-120h6.6z"/><path fill="#231F20" d="M21.101 238.2h-4c-.1 0-.2-.1-.3-.1-.1-.1-.1-.2-.1-.3l8-120c0-.2.2-.4.5-.4h6.6c.3 0 .5.2.5.5l-10.6 120c-.2.1-.3.3-.6.3m-3.4-.9h3l10.6-119.1h-5.7z"/><path fill="#fff" d="M220.6 237.7h4l-8-120H210z"/><path fill="#231F20" d="M224.6 238.2h-4c-.2 0-.4-.2-.5-.4l-10.6-120c0-.1 0-.3.1-.4s.2-.2.3-.1h6.6c.2 0 .4.2.5.4l8 120c0 .1 0 .2-.1.3s-.2.2-.3.2m-3.5-.9h3l-7.9-119.1h-5.7z"/><path fill="#fff" d="M5 109.5h231.801c2.3 0 4.2 1.9 4.2 4.2s-1.9 4.2-4.2 4.2H5.001c-2.3 0-4.2-1.9-4.2-4.2s1.8-4.2 4.2-4.2"/><path fill="#231F20" d="M236.801 118.4H5.001c-2.6 0-4.7-2.1-4.7-4.7S2.4 109 5 109h231.8c2.6 0 4.7 2.1 4.7 4.7s-2.1 4.7-4.7 4.7M5 109.9c-2.1-.1-3.9 1.5-4 3.6s1.5 3.9 3.6 4h232.2c2.1-.1 3.7-1.9 3.6-4-.1-1.9-1.6-3.5-3.6-3.6z"/><path fill="#fff" d="m112.301 44.9 5.6-1.9c2-.7 4.3.4 5 2.5l.7 2.1c.7 2.1-.4 4.3-2.5 5l-5.6 1.9z"/><path fill="#231F20" d="M115.401 54.9c-.2 0-.4-.1-.4-.3l-3.2-9.5v-.3c0-.1.1-.2.3-.2l5.6-1.9c2.3-.8 4.8.5 5.6 2.8l.7 2.1c.8 2.3-.4 4.8-2.7 5.6l-5.6 1.9zm-2.6-9.7 2.9 8.7 5.2-1.7c.9-.3 1.6-.9 2-1.7s.5-1.8.2-2.7l-.7-2.1c-.3-.9-.9-1.6-1.7-2s-1.8-.5-2.6-.2z"/><path fill="#231F20" d="m96.401 49.9 15.8-5.3 3.3 10-15.8 5.3c-2.6.9-5.5-.5-6.3-3.2l-.2-.5c-.8-2.5.6-5.4 3.2-6.3"/><path fill="#231F20" d="M98.2 60.6c-2.4 0-4.5-1.5-5.2-3.7l-.2-.5c-1-2.9.6-6 3.5-6.9l15.8-5.2c.2-.1.5 0 .6.3l3.3 10v.3c-.1.1-.2.2-.3.2l-15.8 5.2c-.5.2-1.1.3-1.7.3m-1.6-10.3c-2.4.8-3.7 3.4-2.9 5.8l.2.5c.8 2.4 3.4 3.7 5.8 2.9l15.4-5.1-3.1-9.2z"/><path fill="#231F20" d="m93.2 56.1-1.9.7.8 2 2.1-.8z"/><path fill="#231F20" d="M92.1 59.3c-.2 0-.3-.1-.4-.3l-.8-2c-.1-.2 0-.5.2-.6l1.9-.8c.2-.1.5 0 .6.2l1 2c.1.1.1.2 0 .4 0 .1-.1.2-.3.2l-2.1.8c0 .1-.1.1-.1.1m-.2-2.2.5 1.2 1.3-.5-.6-1.2z"/><path fill="#fff" d="M97.201 106.6h16.6c1.3 0 2.4 1.1 2.4 2.4v.5h-21.4v-.5c-.1-1.3 1-2.4 2.4-2.4"/><path fill="#231F20" d="M116.201 110h-21.4c-.3 0-.5-.2-.5-.5v-.5c0-1.6 1.3-2.9 2.9-2.9h16.6c1.6 0 2.9 1.3 2.9 2.9v.5c-.1.3-.2.5-.5.5m-21-.9h20.5c0-1.1-.9-2-2-2h-16.5c-1.1 0-2 .9-2 2"/><path fill="#fff" d="M105.4 52.4c1.3 0 2.3 1 2.3 2.3v51.9h-4.5V54.7c-.1-1.3.9-2.3 2.2-2.3"/><path fill="#231F20" d="M107.6 107.1h-4.5c-.3 0-.5-.2-.5-.5V54.7c.1-1.5 1.4-2.7 2.9-2.6 1.4.1 2.5 1.2 2.6 2.6v51.9c0 .3-.2.5-.5.5m-4-.9h3.6V54.7c0-1-.8-1.8-1.8-1.8s-1.8.8-1.8 1.8z"/><path fill="#231F20" d="M107.8 93.2c-.1 0-.2-.1-.3-.1q-.3-.3 0-.6c2.1-1.7 3.4-4.2 3.7-6.9.1-1.8-.7-3.6-2-4.9-1.7-1.6-3.8-2.8-6.1-3.4-.9-.3-1.8-.5-2.6-.8-1.5-.4-2.9-.9-4.3-1.4-2.4-1-5.5-2.8-6.9-6.2-1.6-3.6-1.2-7.8 1.1-11.1.1-.2.4-.2.6-.1s.2.4.1.6c-2.1 3-2.5 6.9-1 10.2 1.3 3.1 4.2 4.8 6.4 5.7 1.4.5 2.8 1 4.2 1.4.9.2 1.8.5 2.7.8 2.4.7 4.6 1.9 6.4 3.6 1.5 1.5 2.3 3.5 2.2 5.6-.3 2.9-1.7 5.7-4 7.5-.1 0-.1 0-.2.1m-92.9-15h38.7c1 0 1.9.7 2.2 1.7L63 106h25.1c.9-.1 1.7.6 1.7 1.5.1.9-.6 1.7-1.5 1.7H22.2c-1 0-1.9-.7-2.2-1.7L12.7 81c-.3-1.2.4-2.5 1.6-2.8z"/><path fill="#231F20" d="M88.1 109.6H22.2c-1.2 0-2.3-.8-2.6-2l-7.2-26.4c-.4-1.4.4-2.9 1.9-3.3.2-.1.5-.1.7-.1h38.7c1.2 0 2.3.8 2.6 2l7.1 25.8h24.8c1.1 0 2 .9 2 2s-1 2-2.1 2m-73.2-31c-1 0-1.8.8-1.8 1.8 0 .2 0 .3.1.5l7.2 26.4c.2.8.9 1.3 1.8 1.4h65.9c.6-.1 1.1-.6 1-1.3-.1-.6-.5-1-1-1H63c-.2 0-.4-.1-.4-.3l-7.2-26c-.2-.8-.9-1.4-1.8-1.3z"/><path fill="#fff" d="M61.9 106.1H23.2c-.3 0-.5-.2-.5-.5s.2-.5.5-.5h38.7c.3 0 .5.2.5.5s-.2.5-.5.5m199.9-70.5h-31.4V67h31.4z"/><path fill="#D1D3D4" d="M261.8 67.5h-31.4c-.3 0-.5-.2-.5-.5V35.6c0-.3.2-.5.5-.5h31.4c.3 0 .5.2.5.5V67c0 .3-.2.5-.5.5m-30.9-1h30.4V36.1h-30.4z"/><path fill="#D1D3D4" d="M256.8 43h-21.4c-.3 0-.5-.2-.5-.5s.2-.5.5-.5h21.4c.3 0 .5.2.5.5-.1.3-.3.5-.5.5m0 5.8h-21.4c-.3 0-.5-.2-.5-.5s.2-.5.5-.5h21.4c.3 0 .5.2.5.5-.1.3-.3.5-.5.5m0 5.9h-21.4c-.3 0-.5-.2-.5-.5s.2-.5.5-.5h21.4c.3 0 .5.2.5.5-.1.3-.3.5-.5.5m-7.2 5.9h-14.2c-.3 0-.5-.2-.5-.5s.2-.5.5-.5h14.2c.3 0 .5.2.5.5s-.2.5-.5.5"/><path fill="#fff" d="M248.6 31.3h-5v7.4h5z"/><path fill="#D1D3D4" d="M248.5 39.2h-5c-.3 0-.5-.2-.5-.5v-7.4c0-.3.2-.5.5-.5h5c.3 0 .5.2.5.5v7.4c0 .3-.2.5-.5.5m-4.4-1h4v-6.4h-4z"/><path fill="#231F20" d="M250.401 179.8c.1-1.6-.2-3.3-1-4.7q-1.2-1.5-2.101-3c-.9-1.9-.3-4.1-.5-6.2-.2-1.8-.999-3.4-2.199-4.7-1.1-1.1-2.5-1.9-3.5-3-1.7-1.9-2.2-4.6-3.2-6.9-1.4-3.3-3.8-6.2-6.9-8.1 1.9 3.8-2.4 8.6-.5 12.3.6 1.2 1.8 2 2.2 3.3 1.1 3-2.501 6.3-1.401 9.3.6 1.5 2.201 2.4 2.901 3.8 1 1.9.2 4.2.3 6.4.1 3 1.9 5.7 4.1 7.7 1.4 1.3 2.8 2.4 4.3 3.6 1.7 1.4 2.5 2.9 4 .6 2.2-3 3.4-6.6 3.5-10.4m1.9 1.7c-.6-2.3-1-4.8 0-7 1.1-2.5 3.7-4.2 4-6.9.2-1.7-.7-3.5-.3-5.2s1.8-2.9 2.9-4.2c2.7-2.9 4.3-6.7 4.5-10.7 1.8 2.1 3.3 4.5 4.3 7.1s.8 5.6-.6 8c-.4.5-.8 1.1-1.1 1.8-.5 1.7.9 3.3 1.7 4.9.9 1.9.7 4.1-.5 5.8-1.5 1.9-4.5 2.6-5.2 5-.2.9-.3 1.7-.3 2.6-.3 3.1-2.5 5.8-5.6 6.6-1.8.4-1.8-.3-2.1-1.8-.4-1.9-1.2-3.9-1.7-6"/><path fill="#231F20" d="M246.601 164.9c-1.3-4.4-1.8-9.1-3.1-13.5-1.1-3.5-2.6-6.8-4.2-10.1l5.5 2.3c1.8.7 3.7 1.6 4.5 3.4 1.5 3-1.2 6.9.4 9.8.7 1 1.4 1.9 2.2 2.7 1.6 2.3 1.4 5.4.5 8.1-.4 1.1-2 7-3.5 5.4-.6-.6-.6-3.1-.9-4-.5-1.3-1-2.7-1.4-4.1m2.999 59c-1.1-7.3-4.5-32.8-4.6-33.1l1-.1c0 .2 3.5 25.8 4.6 33.1z"/><path fill="#231F20" d="M250.9 230.8h-1c.1-8.6 3.7-41.6 5.7-43.8l.7.7c-1.5 1.6-5.3 33.5-5.4 43.1"/><path fill="#231F20" d="M252.8 229.1h-1c.8-18.6-3.1-57.6-3.2-58l1-.1c0 .4 4 39.5 3.2 58.1"/><path fill="#fff" d="M240.201 206.4h20.5l-1.4 20.7c-.2 3.6-3.2 6.4-6.8 6.4h-4c-3.6 0-6.6-2.8-6.8-6.4z"/><path fill="#231F20" d="M252.401 234.1h-4c-3.9 0-7.1-3-7.3-6.9l-1.4-20.8c0-.3.2-.5.5-.5h20.6c.1 0 .3.1.4.2s.1.2.1.4l-1.4 20.8c-.5 3.8-3.7 6.7-7.5 6.8m-11.7-27.2 1.4 20.2c.2 3.3 3 5.9 6.3 5.9h4c3.3 0 6.1-2.6 6.3-5.9l1.4-20.2z"/></svg>