<svg xmlns="http://www.w3.org/2000/svg" width="370" height="326" fill="none"><path fill="#fff" d="M348.5 105.5v206c0 7.6-8.5 13.8-19.1 13.8H43.8c-10.6 0-19.2-6.2-19.2-13.8v-206c0-7.6 8.6-13.8 19.2-13.8h285.6c10.6 0 19.1 6.2 19.1 13.8"/><path fill="#231F20" d="M329.4 326H43.8c-11 0-19.8-6.5-19.8-14.5v-206c0-8 8.9-14.5 19.8-14.5h285.6c10.9 0 19.8 6.5 19.8 14.5v206c0 8-8.9 14.5-19.8 14.5M43.8 92.4c-10.2 0-18.4 5.9-18.4 13.1v206c0 7.2 8.3 13.1 18.4 13.1h285.6c10.2 0 18.4-5.9 18.4-13.1v-206c0-7.2-8.3-13.1-18.4-13.1z"/><path fill="#fff" d="M348.499 105.5v10.8h-323.8v-10.8c0-7.6 8.6-13.8 19.2-13.8h285.6c10.5 0 19 6.2 19 13.8"/><path fill="#231F20" d="M348.5 117.1H24.7c-.4 0-.7-.3-.7-.7v-10.8c0-8 8.9-14.5 19.8-14.5h285.6c10.9 0 19.8 6.5 19.8 14.5v10.8c0 .3-.3.6-.7.7m-323.1-1.4h322.4v-10.1c0-7.2-8.3-13.1-18.4-13.1H43.8c-10.2 0-18.4 5.9-18.4 13.1z"/><path fill="#fff" d="M297.599 131.5h-218.9v21.8h218.9z"/><path fill="#231F20" d="M297.6 154H78.7c-.4 0-.7-.3-.7-.7v-21.8c0-.4.3-.7.7-.7h218.9c.4 0 .7.3.7.7v21.8c0 .4-.3.7-.7.7m-218.2-1.4h217.5v-20.4H79.4z"/><path fill="#000" d="M297.6 131.5h-29.7v21.8h29.7z"/><path fill="#231F20" d="M297.599 154h-29.7c-.4 0-.7-.3-.7-.7v-21.8c0-.4.3-.7.7-.7h29.7c.4 0 .7.3.7.7v21.8c0 .4-.3.7-.7.7m-29-1.4h28.3v-20.4h-28.3z"/><path fill="#D1D3D4" d="M327.9 168.4h-113v113h113z"/><path fill="#000" d="M180.399 171.2h-125.7v2.8h125.7zm-42.1 8.4h-83.6v2.8h83.6z"/><path fill="#D1D3D4" d="M189.499 188h-134.8v2.8h134.8zm-16.3 8.3h-118.5v2.8h118.5zm-99.699 9H55.7v1.4h17.8zm15.1 0h-9.9v1.4h9.9zm14 0h-9.5v1.4h9.5z"/><path fill="#000" d="M153.299 221.8h-98.6v2.8h98.6zm19.9 8.3h-118.5v2.8h118.5z"/><path fill="#D1D3D4" d="M133.899 238.5h-79.2v2.8h79.2zm24.7 8.4h-103.9v2.8h103.9zM64.6 255.8h-8.9v1.4h8.9zm23.9 0H69.1v1.4h19.4zm11 0h-6.4v1.4h6.4z"/><path fill="#000" d="M164.899 272.3h-110.2v2.8h110.2zm15.5 8.4h-125.7v2.8h125.7z"/><path fill="#D1D3D4" d="M140.799 289h-86.1v2.8h86.1zm-15.2 8.4h-70.9v2.8h70.9zM78.9 306.3H55.7v1.4h23.2zm19 0H84.8v1.4h13.1z"/><path fill="#000" d="M46.2 108.6a4.6 4.6 0 1 0-.001-9.2 4.6 4.6 0 0 0 0 9.2"/><path fill="#D1D3D4" d="M60.1 108.6a4.6 4.6 0 1 0 0-9.2 4.6 4.6 0 0 0 0 9.2m13.9 0a4.6 4.6 0 1 0 0-9.2 4.6 4.6 0 0 0 0 9.2"/><path fill="#231F20" d="M279.201 147c-3.3 0-5.9-2.7-5.9-5.9s2.7-5.9 5.9-5.9c3.3 0 5.9 2.7 5.9 5.9 0 1.6-.6 3.1-1.7 4.2s-2.6 1.7-4.2 1.7m0-10.4c-2.5 0-4.5 2-4.5 4.5s2 4.5 4.5 4.5 4.5-2 4.5-4.5c0-1.2-.5-2.4-1.3-3.2-.8-.9-2-1.3-3.2-1.3"/><path fill="#231F20" d="M287.201 149.7c-.2 0-.4-.1-.5-.2l-4.3-4.3c-.3-.3-.3-.7 0-1s.7-.3 1 0l4.3 4.3c.3.3.3.7 0 1-.1.2-.3.2-.5.2M47.076 217.514l-16.93 33.127 13.892 7.099 16.93-33.126z"/><path fill="#231F20" d="M44 258.4c-.1 0-.2 0-.3-.1l-13.9-7.1c-.3-.2-.5-.6-.3-.9l16.9-33.1c.1-.2.2-.3.4-.4s.4-.1.5 0l13.9 7.1c.3.2.5.6.3.9L44.7 258c-.1.2-.2.3-.4.4zm-13-8.1 12.7 6.5L60 224.9l-12.7-6.5z"/><path fill="#fff" d="m1.4 300.9 30-58.7c.6-1.2 2.1-1.7 3.4-1.1l14.3 7.3c1.2.6 1.7 2.1 1.1 3.4l-30 58.7c-.6 1.2-2.1 1.7-3.4 1.1l-14.3-7.3c-1.3-.7-1.7-2.2-1.1-3.4"/><path fill="#231F20" d="M17.4 312.1c-.7 0-1.3-.2-1.9-.5L3 305.3c-1-.5-1.7-1.4-2-2.4-.3-1.1-.2-2.2.2-3.2l29.1-56.9c1-2.1 3.5-2.9 5.6-1.8l12.5 6.4c2.1 1.1 2.9 3.6 1.8 5.6l-29.1 56.9c-.5 1-1.4 1.7-2.4 2.1-.4.1-.8.1-1.3.1M34 241.8c-.3 0-.6 0-.9.1-.7.2-1.3.7-1.6 1.4L2.4 300.2c-.7 1.4-.2 3 1.2 3.7l12.5 6.4c1.4.7 3 .2 3.7-1.2l29.1-56.9c.7-1.4.2-3-1.2-3.7l-12.5-6.4q-.45-.15-1.2-.3"/><path fill="#fff" d="M86.1 156.3c-19.8-10.1-44-2.3-54.1 17.5s-2.3 44 17.5 54.1 44 2.3 54.101-17.5 2.3-44-17.5-54.1m-31.9 62.5c-14.7-7.5-20.5-25.6-13-40.3s25.6-20.5 40.3-13 20.501 25.6 13 40.3c-7.6 14.7-25.6 20.5-40.3 13"/><path fill="#231F20" d="M67.701 233c-22.6 0-41-18.3-41-41 0-22.6 18.3-41 41-41s41 18.3 41 41c0 17.8-11.4 33.5-28.4 39-4 1.3-8.3 2-12.6 2m.1-80.5c-21.8-.1-39.6 17.6-39.7 39.5-.1 21.8 17.6 39.6 39.5 39.7 21.8.1 39.6-17.6 39.7-39.5 0-14.9-8.3-28.5-21.5-35.3-5.6-2.9-11.7-4.4-18-4.4m-.1 70.2c-4.8 0-9.6-1.1-13.9-3.4-15.1-7.7-21.1-26.2-13.4-41.3s26.2-21.1 41.3-13.4 21.1 26.2 13.4 41.3c-5.2 10.4-15.8 16.8-27.4 16.8m-13.2-4.6c14.4 7.3 32 1.6 39.3-12.7 7.3-14.4 1.6-32-12.7-39.3-14.4-7.3-32-1.6-39.3 12.7-7.4 14.3-1.7 31.9 12.7 39.3"/><path fill="#fff" d="M368.502 207.5h-114.9v85.3h114.9z"/><path fill="#231F20" d="M368.501 293.4h-115c-.4 0-.7-.3-.7-.7v-85.3c0-.4.3-.7.7-.7h115c.4 0 .7.3.7.7v85.3c.1.4-.2.7-.7.7m-114.2-1.4h113.5v-83.9h-113.5z"/><path fill="#231F20" d="M265.9 276.6h-.1c-10-.3-12.8-9.9-12.8-10-.1-.4.1-.8.5-.9s.7.1.9.5c.1.4 2.5 8.7 11.5 9h.1c4.4 0 7.5-11.9 10.3-22.4 2.9-10.9 5.6-21.2 10.1-22.3 1.8-.5 3.8-.2 5.4.7 4.1 2.6 5.6 9.7 7.5 18 .9 4.7 2.2 9.3 3.7 13.9 2.4 6.8 7 10.9 11.4 10.4 5.5-.6 9.6-8.2 11-20.4 4-34.6 16.1-38.4 21-38.4h.2c12.4 0 18.8 6.7 22.8 23.7.1.4-.1.8-.5.9s-.8-.1-.9-.5v-.1c-3.9-16.5-9.7-22.6-21.5-22.6h-.2c-9.6 0-16.9 14-19.6 37.2-1.5 13-6 20.9-12.2 21.6-5 .6-10.2-4-12.9-11.4-1.5-4.6-2.8-9.3-3.7-14.1-1.7-7.6-3.3-14.9-6.8-17.1-1.3-.8-2.9-1-4.3-.6-3.8.9-6.6 11.7-9.1 21.3-3.4 12.3-6.3 23.7-11.8 23.6"/><path fill="#D1D3D4" d="M357.8 258.7h-16.1c-.4 0-.7-.3-.7-.7s.3-.7.7-.7h16.1c.4 0 .7.3.7.7s-.3.7-.7.7m0 6.7h-16.1c-.4 0-.7-.3-.7-.7s.3-.7.7-.7h16.1c.4 0 .7.3.7.7s-.3.6-.7.7m-7.998 6.6h-8c-.4 0-.7-.3-.7-.7s.3-.7.7-.7h8c.4 0 .7.3.7.7s-.3.7-.7.7M281.3 216.2h-16.1c-.4 0-.7-.3-.7-.7s.3-.7.7-.7h16.1c.4 0 .7.3.7.7s-.3.7-.7.7m0 6.7h-16.1c-.4 0-.7-.3-.7-.7s.3-.7.7-.7h16.1c.4 0 .7.3.7.7s-.3.7-.7.7m-7.998 6.6h-8c-.4 0-.7-.3-.7-.7s.3-.7.7-.7h8c.4 0 .7.3.7.7s-.3.7-.7.7"/><path fill="#fff" d="M252.2 30.2c2.7-2.7 6.2-7.3 3.2-11.2-.8-1-2-1.7-2.6-2.8s-.6-2.7-.9-4c-.9-4.9-5.6-8.2-10.4-9.8s-12.2-2.9-16.8 0-6.2 8.6-11 10.9c-5.9 2.8-14-1.4-19.1 2.7-1.7 1.4-2.7 3.5-4.6 4.7-1.6.9-3.4 1.3-5.3 1.2-8.8.5-18.6.3-24.8 6.5s-6 16.2-4 24.7c.9 3.9 2.2 7.9 4.6 11.1 3.6 4.8 9.4 7.6 15.4 8.4 8.9 1.1 18.9 0 22.6-9.1.8-2.1 1.4-4.4 3-6 3.5-3.5 9.5-1.2 14.2-2.8 8-2.6 9.4-14.6 17.2-17.6 7.4-2.9 13.2-1 19.4-7.1z"/><path fill="#231F20" d="M181.3 73.8c-1.8 0-3.7-.1-5.5-.4-6.6-.9-12.4-4-15.9-8.6-2.6-3.6-3.9-7.9-4.7-11.4-1.8-7.8-2.6-18.6 4.2-25.4 5.8-5.8 14.4-6.2 22.7-6.6l2.6-.1c1.7 0 3.4-.4 4.9-1.2q1.35-1.05 2.4-2.4c.6-.8 1.3-1.6 2.1-2.2 3-2.4 6.8-2.2 10.5-2 3 .2 6.1.4 8.7-.8s4.1-3.3 5.9-5.6c1.4-2 3.1-3.8 5.1-5.2 5.3-3.5 13.9-1.2 17.4-.1 6 2 10.1 5.8 10.9 10.3.1.4.1.8.2 1.2-.1 1.6.7 3.1 2 4l1.2 1.2c2.5 3.2 1.4 7.6-3.2 12.1-4.1 4-8.1 4.7-12.2 5.4-2.5.3-5 1-7.4 1.8-3.6 1.4-5.8 4.8-8.1 8.5-2.4 3.8-4.9 7.8-9.2 9.1-2 .5-4.1.7-6.2.7-3 0-5.9 0-7.8 1.9-1.1 1.2-1.8 2.7-2.3 4.2l-.6 1.5c-2.5 6.6-8.6 10-17.7 10.1m20.1-59c-2.4 0-4.5.3-6.3 1.8-.7.6-1.3 1.3-1.9 2-.8 1-1.7 2-2.7 2.7-1.7.9-3.7 1.4-5.6 1.4-.9 0-1.7.1-2.6.1-8.1.4-16.4.8-21.8 6.2-6.6 6.7-5.2 18-3.8 24.1.8 3.3 2 7.5 4.4 10.9 3.2 4.3 8.6 7.3 14.9 8.1 7.9 1 18.2.3 21.8-8.7.2-.5.4-.9.5-1.4.5-1.8 1.4-3.4 2.6-4.8 2.3-2.3 5.6-2.3 8.7-2.3 1.9.1 3.9-.1 5.8-.6 3.8-1.2 6-4.8 8.4-8.5s4.7-7.5 8.7-9c2.5-.9 5-1.5 7.6-1.9 4.1-.7 7.7-1.3 11.5-5 2.4-2.3 5.9-6.7 3.1-10.2-.3-.4-.7-.7-1.1-1.1-1.5-1.2-2.4-3-2.4-4.9 0-.4-.1-.8-.1-1.1-.7-4-4.4-7.4-9.9-9.2-2.5-.8-11.2-3.3-16.2 0-1.8 1.4-3.4 3-4.7 4.9-1.8 2.3-3.6 4.7-6.4 6s-6.2 1.2-9.4 1c-1-.4-2.1-.4-3.1-.5"/><path fill="#fff" d="M94.2 32.7 94 21.2h10.3l1.4 14.1z"/><path fill="#231F20" d="M105.699 36.1h-.2l-11.5-2.7c-.3-.1-.5-.3-.5-.7l-.2-11.5c0-.2.1-.4.2-.5s.3-.2.5-.2h10.2c.4 0 .7.3.7.6l1.4 14.2c0 .2-.1.4-.2.6 0 .1-.2.2-.4.2m-10.8-4 10 2.3-1.3-12.6h-8.9z"/><path fill="#231F20" d="m104.299 21.2 1.4-7.2s-23.1-7.3-21.8-3.9 10.2 11.1 10.2 11.1z"/><path fill="#231F20" d="M104.3 21.9H94c-.2 0-.3-.1-.4-.2-.4-.3-9.1-7.9-10.4-11.4-.2-.4-.1-.9.2-1.3 1.9-2 16.3 2.3 22.5 4.3.3.1.5.5.5.8l-1.3 7.2c-.2.4-.4.6-.8.6m-10-1.4h9.4l1.2-6.1c-8.8-2.8-18.7-5.2-20.3-4.5 1 2.7 7.1 8.4 9.7 10.6m-5.501 60.1c0-1.1 4-50.7 4-50.7s15-.7 14.7 0 3.7 50.7 3.7 50.7z"/><path fill="#231F20" d="M111.1 81.3H88.7c-.2 0-.4-.1-.5-.2s-.2-.3-.2-.5c0-1.1 3.9-48.7 4-50.7 0-.3.3-.6.7-.6 14.7-.7 15-.1 15.3.3.1.2.1.4.1.6-.2 1.6 2.1 31 3.7 50.5 0 .2 0 .4-.2.5-.1 0-.3.1-.5.1m-21.6-1.4h20.9c-3.1-38.2-3.6-47.3-3.6-49.5-1.6-.2-7.7-.1-13.4.2-1.3 16-3.6 44.4-3.9 49.3"/><path fill="#fff" d="M244.4 46.1s-8.1-12.2-6.7-15.7 3.7-6 5.6-5.3 7.1 16.6 7.1 16.6z"/><path fill="#231F20" d="M244.399 46.9h-.1c-.2 0-.4-.1-.5-.3-.9-1.3-8.3-12.6-6.7-16.3 1.8-4.2 4.3-6.4 6.4-5.7 2 .7 5.9 12.2 7.5 17.1.1.3 0 .6-.2.8l-6 4.4c-.2-.1-.3 0-.4 0m-1.8-21.2c-1.3 0-3 2-4.3 5-.9 2.2 3.1 9.8 6.2 14.4l5-3.7c-2.4-7.3-5.5-15.1-6.5-15.7z"/><path fill="#fff" d="m55.9 38.4-6.2-9.5-8.7 6.4 5.2 10.3z"/><path fill="#231F20" d="M46.2 46.3H46c-.2 0-.4-.2-.5-.4l-5.2-10.3c-.2-.3-.1-.7.2-.9l8.7-6.4c.2-.1.4-.2.5-.1.2 0 .4.1.5.3l6.2 9.5c.2.3.2.8-.2 1l-9.7 7.1c0 .2-.2.2-.3.2m-4.3-10.8 4.5 9 8.5-6.2-5.4-8.3z"/><path fill="#231F20" d="M49.7 28.9s-5-8.3-5.2-7.7-18.4 12.9-18.2 14.1 14.7 0 14.7 0z"/><path fill="#231F20" d="M30.7 36.5c-4.8 0-4.9-.7-5-1.1-.2-.9.9-2 13.2-10.9 2.3-1.7 4.8-3.4 5.1-3.8.1-.2.3-.3.5-.3.5 0 .9-.1 5.8 8.1.2.3.1.7-.2.9l-8.7 6.4c-.1.1-.2.1-.3.1-4.9.5-8.2.6-10.4.6M27.4 35c1.9.3 7.9.1 13.4-.4l8-5.9c-1.7-2.7-3.4-5.6-4.2-6.6-.6.5-2 1.5-4.9 3.5-3.9 2.8-10.6 7.7-12.3 9.4"/><path fill="#000" d="M229.299 40c1.6.6 15.2 28.7 19.4 27.2s-8.1-22.2-8.1-22.2l11-7.9s28.2 41.6 17.4 50.7-51.7-20.8-51.7-20.8z"/><path fill="#000" d="M225 33.7s-9.6-11.1-23.8-1.6-41.1 25.6-41.1 25.6l8.9 34.9s21.6 9.6 47.3-2.9c22.5-11 23.6-28.6 20.7-36s-12-20-12-20"/><path fill="#231F20" d="M214.9 86.4c-.2 0-.5-.1-.6-.3-.2-.3-.2-.7.1-1h.1c.2-.1 19.9-13.5 23.3-27.6.1-.4.5-.6.8-.5.4.1.6.5.5.8-3.5 14.6-23.1 27.9-23.9 28.4 0 .1-.2.2-.3.2"/><path fill="#fff" d="M246.399 27.7s.8 7.8-.6 8.6-3.6-1.4-3.6-1.4"/><path fill="#231F20" d="M245.1 37.2c-1.6 0-3.2-1.6-3.5-1.8-.3-.3-.3-.7 0-1s.7-.3 1 0c.6.6 2.1 1.7 2.8 1.3.5-.4.6-4.2.3-7.9 0-.4.2-.7.6-.8.4 0 .7.2.8.6.3 3.1.6 8.4-1 9.3-.3.2-.6.3-1 .3"/><path fill="#fff" d="M224.999 54.8c-5.2-4.3-8.9-17.1-8.7-17.3 2.1-4 4.5-7.9 7-11.7 0 0 4.2 2.2 9.3-1.5s9.9-.4 17.1-4.8c1.4 3.3-1.5 7.1-3 9.9-2.1 3.9-4.2 7.7-6.4 11.4-1.4 2.4-7.8-.9-8.5-2.2-1.2 2.7-3.4 8.1-6.8 16.2"/><path fill="#231F20" d="M224.999 55.5c-.2 0-.3-.1-.4-.2-5.2-4.2-9.4-17.3-8.9-18.2 2.1-4 4.5-8 7-11.8.2-.3.6-.4.9-.2.1.1 3.9 2 8.5-1.4 2.6-1.9 5.1-2.1 7.8-2.2 3.3 0 6.5-.9 9.3-2.5.2-.1.4-.1.6-.1.2.1.4.2.4.4 1.3 3-.6 6.4-2.2 9-.3.5-.6 1-.8 1.4-2 3.8-4.2 7.7-6.4 11.4-.6.8-1.5 1.3-2.5 1.2-2.3-.2-4.5-1.1-6.3-2.5-1.3 3.1-1.7 4.1-6.3 15.2-.1.2-.3.4-.5.4-.1.1-.2.1-.2.1m-8-17.9c.3 1.4 3.4 11.7 7.8 16 4.7-11.3 4.7-11.4 6.3-15.3.1-.2.3-.4.6-.4s.5.1.6.4c.4.7 3.7 2.7 6 2.7.7 0 1.1-.2 1.3-.5 2.2-3.7 4.4-7.6 6.4-11.4q.3-.75.9-1.5c1.2-2.1 2.8-4.8 2.3-7-2.8 1.5-6 2.3-9.2 2.3-2.6.2-4.8.3-7.1 2-4.3 3.1-8 2.3-9.4 1.8-1.1 1.6-4.8 7.4-6.5 10.9"/><path fill="#fff" d="M241.599 37.9s-4 .3-3.9-3.7Z"/><path fill="#231F20" d="M241.499 38.6c-1.2 0-2.3-.4-3.2-1.2-.8-.8-1.3-2-1.2-3.2 0-.4.3-.7.7-.7s.7.3.7.7c-.1.8.2 1.6.8 2.2.7.5 1.5.8 2.4.8.4 0 .7.2.7.6v.1c0 .4-.3.7-.6.7zm-9.799 0s-3.2-1.8-3.5-4.9c0 0-2.9 6 1.3 10.4z"/><path fill="#231F20" d="M229.4 44.8c-.2 0-.4-.1-.5-.2-4.4-4.6-1.5-10.9-1.4-11.2s.4-.5.8-.4q.45.15.6.6c.3 2.7 3.1 4.4 3.2 4.4q.45.3.3.9l-2.3 5.5c-.1.2-.3.4-.5.4zm-1.2-8.8c-.6 2.3-.2 4.8 1.1 6.8l1.6-3.9c-1.2-.8-2.1-1.8-2.7-2.9m18.36-10.574c.463-.752.61-1.503.328-1.677-.282-.173-.887.296-1.35 1.048-.463.753-.61 1.503-.328 1.677s.887-.295 1.35-1.048"/><path fill="#fff" d="M237.5 25.6c.4-1 .5-2.1.3-3.2 0-.8-.2-1.7-.5-2.5s-.9-1.4-1.8-1.7c-.7-.2-1.5 0-2.1.4s-1.1 1-1.5 1.7c-1.7 2.9-1.7 6.5 0 9.3l-.1-.3"/><path fill="#231F20" d="M231.899 30.2c-.2 0-.5-.1-.6-.3-1.8-3.1-1.8-7 0-10.1.4-.7 1-1.4 1.7-1.9.8-.5 1.8-.7 2.7-.5 1 .3 1.8 1.1 2.2 2.1.3.9.5 1.8.5 2.7.2 1.2.1 2.5-.4 3.6-.2.3-.6.5-.9.3s-.5-.6-.3-.9c.3-.9.4-1.9.2-2.8 0-.8-.2-1.5-.4-2.3-.2-.6-.7-1.1-1.3-1.3-.5-.1-1.1 0-1.6.3-.5.4-1 .9-1.3 1.4-1.5 2.6-1.5 5.8-.1 8.5h.1l.1.3c.1.3-.1.7-.4.8 0 .1-.1.1-.2.1M160.1 57.7c-6.9-2.8-23.2.6-33.5 4S82.4 74.4 82.4 74.4L57.6 35.2S40 41.6 41 43s17.6 41.2 34.3 49.2 95.6.7 95.6.7z"/><path fill="#231F20" d="M110.2 96.8c-15.3 0-29.2-.9-35.2-3.9-9.8-4.7-21-20.6-33.4-47.2-.5-1.1-1-2.1-1.1-2.3-.2-.2-.2-.6-.1-.8.6-1.9 12.2-6.3 17.1-8 .3-.1.7 0 .8.3l24.5 38.7C87 72.4 117 64.2 126.5 61c8.4-2.8 26.2-7.2 33.9-4 .2.1.3.2.4.4l10.8 35.3c.1.2 0 .4-.1.6s-.3.3-.5.3c-2.1.4-33.8 3.3-60.8 3.2M41.8 43c.2.4.5 1 1 2.2 12.3 26.3 23.3 42 32.8 46.5 15.4 7.4 85.8 1.4 94.4.7l-10.4-34.2c-7-2.6-23.3 1-32.7 4.2C116.7 65.8 83 75 82.7 75.1s-.6 0-.8-.3L57.5 36.1c-7.1 2.6-14.6 5.7-15.7 6.9"/><path fill="#fff" d="M227.299 92.9v-6.1h39.9l16.4-40.7h58l-19 40.5v6.3z"/><path fill="#231F20" d="M322.6 93.6h-95.3c-.4 0-.7-.3-.7-.7v-6.1c0-.4.3-.7.7-.7h39.5l16.3-40.2c.1-.3.4-.4.6-.4h58c.2 0 .5.1.6.3s.1.5 0 .7l-19 40.3v6.1c-.1.4-.4.7-.7.7M228 92.2h93.9v-5.6c0-.1 0-.2.1-.3l18.6-39.5h-56.5L267.9 87c-.1.3-.4.4-.6.4H228z"/><path fill="#000" d="M186.9 40.9s6.6 50.9 11.3 52.1 51.8-8.6 51.8-8.6l-3.2-16.5s-33.9 6-33.3 0-3.8-28.7-3.8-28.7z"/><path fill="#231F20" d="M198.4 92.9c-1.7 0-3.4-.1-5-.4-3.3-.7-5.7-4.1-7.1-10-1.8-7.2-1.7-16.3-1.6-21.1 0-.1.4-11.7 1.8-12.8.3-.3.7-.3 1 0s.3.7 0 1c-.9 1.6-3.4 25 1.4 36.4 1.2 3 2.9 4.7 4.8 5.1 11.1 2.4 55.7-7.3 56.2-7.4.4 0 .7.2.8.6 0 .3-.2.6-.5.7-1.6.3-36 7.8-51.8 7.9"/><path fill="#231F20" d="M217.099 71.3c-1 0-2.1-.4-2.8-1.2-5.9-5.5-5.4-30-5.3-31 0-.4.3-.7.7-.7s.7.3.7.7c0 .2-.5 24.9 4.9 30 .5.6 1.3.9 2.1.8 8.4-.8 29.2-2.7 29.4-2.8.4-.1.7.2.8.6s-.2.7-.6.8h-.1c-.2 0-21 2-29.4 2.8z"/><path fill="#fff" d="M248.699 70.6s10-6.8 11.9-5.1 10.4 12.7 8.1 13.6-6-3.1-6-3.1-2.2 3.5-11.1 2.3z"/><path fill="#231F20" d="M268 79.9c-2 0-4.3-1.9-5.3-2.9-1.2 1.1-4.3 2.9-11.2 2-.3 0-.5-.2-.6-.4L248 71c-.1-.3 0-.6.3-.8 3.2-2.1 10.7-6.9 12.8-5.1 1.5 1.4 9.2 11 8.7 13.8-.1.5-.4.8-.8 1zm-5.4-4.7c.2 0 .4.1.5.2 1.3 1.4 3.9 3.4 5.3 2.9.2-.8-4.6-8.9-8.3-12.4-.8-.7-5.6 1.6-10.6 4.9l2.5 6.7c7.9 1 10-2 10-2z"/><path fill="#fff" d="M88.8 71.3c-.4 0-.7-.3-.7-.7 0-.3.2-.6.5-.7L111 65c.4-.1.7.1.8.5s-.2.7-.5.8l-22.4 4.9z"/><path fill="#231F20" d="M321.9 87.5h-54.7c-.4 0-.7-.3-.7-.7s.3-.7.7-.7h54.7c.4 0 .7.3.7.7s-.3.7-.7.7"/></svg>